<svg width="52" height="52" viewBox="0 0 52 52" fill="none" xmlns="http://www.w3.org/2000/svg">
<path d="M2.99607 2.99612C2.69139 3.3008 2.67107 3.64611 2.95545 4.00158L3.15857 4.26565H10.4609H17.7633L17.7937 10.2274C17.8242 16.9102 17.7836 16.5344 18.5859 17.4078C18.8195 17.6516 19.2055 17.9461 19.4594 18.0477L19.9062 18.2305V21.643C19.9062 25.6953 19.9265 25.8375 20.7594 26.6703C21.389 27.2899 22.0086 27.5235 23.0242 27.5235H23.664V31.3321V35.1508L24.5273 36.0446C25.5226 37.0703 25.8476 37.2633 26.3047 37.0703C26.4672 36.9992 26.9953 36.5422 27.4726 36.0446L28.3359 35.1508V31.3321V27.5235H28.9758C29.9914 27.5235 30.6109 27.2899 31.2406 26.6703C32.0734 25.8375 32.0937 25.6953 32.0937 21.6735V18.2914L32.5305 18.0985C33.0992 17.8446 33.6883 17.2555 33.9625 16.6664C34.1758 16.2094 34.1758 16.0672 34.2062 10.2274L34.2367 4.26565H41.539H48.8414L49.0445 4.00158C49.3289 3.64611 49.3086 3.3008 49.0039 2.99612L48.7601 2.74221H26H3.23982L2.99607 2.99612ZM32.7031 9.97346C32.7031 16.3617 32.7234 16.1789 31.9922 16.6055C31.6469 16.7985 31.4844 16.8086 26 16.8086C20.5156 16.8086 20.3531 16.7985 20.0078 16.6055C19.2765 16.1789 19.2969 16.3617 19.2969 9.97346V4.26565H26H32.7031V9.97346ZM22.5469 20.1602C22.5469 22.0289 22.5469 22.0492 22.8008 22.293C23.1054 22.6078 23.5828 22.6281 23.8672 22.3438C24.0601 22.1508 24.0703 22.0086 24.0703 20.211V18.2813H24.6797H25.289V21.0946C25.289 24.243 25.2992 24.2735 25.9797 24.2735C26.7109 24.2735 26.7109 24.2735 26.7109 21.1047V18.2813H27.2695H27.8281V20.1602C27.8281 22.0289 27.8281 22.0492 28.082 22.293C28.3867 22.5977 28.732 22.618 29.0875 22.3336L29.3515 22.1305V20.2008V18.2813H29.9609H30.5703V21.5922C30.5703 25.2789 30.55 25.4008 29.9101 25.7969C29.5851 26 29.4531 26.0102 25.868 25.9797L22.1609 25.9492L21.8867 25.6953C21.3484 25.1977 21.3281 25.0555 21.3281 21.5313V18.2813H21.9375H22.5469V20.1602ZM26.914 30.9563V34.3891L26.457 34.836L26 35.2828L25.5937 34.8867L25.1875 34.4906V31.0071V27.5235H26.0508H26.914V30.9563Z" fill="#4F8CCA"/>
<path d="M21.5312 6.50091C21.3383 6.69388 21.3281 6.83606 21.3281 9.18216V11.6704L21.5922 11.8736C21.9273 12.1376 22.2523 12.1478 22.557 11.8939C22.8008 11.7009 22.8008 11.6806 22.8312 9.27356C22.8617 6.92747 22.8516 6.83606 22.6484 6.572C22.3742 6.22669 21.8359 6.19622 21.5312 6.50091Z" fill="#4F8CCA"/>
<path d="M21.5313 13.305C21.2164 13.6198 21.2469 14.3409 21.5922 14.6151C22.1305 15.0417 22.7195 14.7675 22.8211 14.0667C22.8617 13.7518 22.8211 13.5995 22.6485 13.376C22.3742 13.0307 21.836 13.0003 21.5313 13.305Z" fill="#4F8CCA"/>
<path d="M17.55 32.4695C17.2758 32.7844 17.2352 33.0992 17.4282 33.3938C17.5297 33.5461 18.9516 35.0695 20.5969 36.7859L23.593 39.9141H25.9391C27.2289 39.9141 28.336 39.8734 28.3867 39.8328C28.4477 39.7922 29.4938 38.7055 30.7227 37.4258C31.9414 36.1359 33.3227 34.6938 33.7899 34.2164C34.7039 33.2617 34.7953 33.0383 34.4196 32.5609C34.2672 32.368 34.1149 32.2969 33.8711 32.2969C33.5563 32.2969 33.3024 32.5305 30.5602 35.3945L27.6047 38.4922H25.9594H24.3141L21.9375 35.9938C20.6274 34.6227 19.2969 33.2211 18.9922 32.8961C18.5047 32.3781 18.3727 32.2969 18.068 32.2969C17.8446 32.2969 17.6414 32.368 17.55 32.4695Z" fill="#4F8CCA"/>
<path d="M9.07969 34.7445C8.89687 34.9477 8.88672 35.2219 8.88672 41.9148V48.8719L9.13047 49.0648C9.36406 49.2578 9.78047 49.2578 26.1625 49.2578C42.8289 49.2578 42.9609 49.2578 43.1641 49.0547C43.3672 48.8516 43.3672 48.7195 43.3672 41.9453V35.0289L43.1031 34.7852L42.8289 34.5313H39.6195C36.725 34.5313 36.3898 34.5516 36.1969 34.7141C36.0852 34.8055 34.4906 36.4305 32.6625 38.3094L29.3312 41.7422H26.0609H22.7805L19.3578 38.1977C17.4688 36.2477 15.8539 34.6227 15.7727 34.5922C15.6914 34.5617 14.1984 34.5313 12.4516 34.5313C9.35391 34.5313 9.27266 34.5414 9.07969 34.7445ZM18.1289 39.2742C19.8453 41.0516 21.4094 42.6563 21.5922 42.8289L21.9375 43.1641H25.9797H30.032L33.4648 39.6094L36.8977 36.0547H39.2742H41.6406V41.8945V47.7344H25.9492H10.2578V41.8945V36.0547H12.6344H15.0008L18.1289 39.2742Z" fill="#4F8CCA"/>
</svg>
