<svg width="16" height="16" viewBox="0 0 16 16" fill="none" xmlns="http://www.w3.org/2000/svg">
<mask id="mask0_2231_728" style="mask-type:luminance" maskUnits="userSpaceOnUse" x="0" y="1" width="15" height="15">
<path d="M15 1H0V15.6667H15V1Z" fill="white"/>
</mask>
<g mask="url(#mask0_2231_728)">
<path fill-rule="evenodd" clip-rule="evenodd" d="M14.3674 15.6674H0.623988C0.52733 15.6674 0.448242 15.5901 0.448242 15.4956V10.83C0.448242 10.7355 0.52733 10.6582 0.623988 10.6582H3.47109C3.53259 10.6582 3.58534 10.6926 3.61168 10.7355L5.66793 13.717H9.32347L11.3797 10.7355C11.4148 10.6926 11.4676 10.6582 11.5291 10.6582H14.3674C14.464 10.6582 14.5431 10.7355 14.5431 10.83V15.4956C14.5431 15.5901 14.464 15.6674 14.3674 15.6674Z" fill="#4F8CCA"/>
<path fill-rule="evenodd" clip-rule="evenodd" d="M8.60282 12.5743H6.3972C6.33565 12.5743 6.29174 12.5485 6.25657 12.5056L1.96836 7.30733C1.90686 7.23 1.91565 7.11829 2.00349 7.05816L2.82953 6.43095C2.90861 6.37937 3.01407 6.38797 3.07557 6.4653L6.8717 11.0878H8.12828L11.9244 6.4653C11.9859 6.38797 12.0914 6.37937 12.1705 6.43095L12.9965 7.05816C13.0756 7.11829 13.0932 7.23 13.0228 7.30733L8.7434 12.5056C8.70824 12.5485 8.65553 12.5743 8.60282 12.5743Z" fill="#4F8CCA"/>
<path fill-rule="evenodd" clip-rule="evenodd" d="M11.2215 3.09649H3.77859C3.18105 3.09649 2.69775 2.63249 2.69775 2.04822V1.17184C2.69775 1.07733 2.77684 1 2.8735 1H12.1178C12.2145 1 12.2935 1.07733 12.2935 1.17184V2.04822C12.3023 2.63249 11.819 3.09649 11.2215 3.09649Z" fill="#4F8CCA"/>
<path fill-rule="evenodd" clip-rule="evenodd" d="M11.2304 4.37744H3.7612C3.66453 4.37744 3.58545 4.30011 3.58545 4.20559V2.92535C3.58545 2.70197 3.93695 2.70197 3.93695 2.92535H11.0547C11.0547 2.70197 11.4062 2.70197 11.4062 2.92535V4.20559C11.4062 4.30011 11.3271 4.37744 11.2304 4.37744Z" fill="#4F8CCA"/>
<path fill-rule="evenodd" clip-rule="evenodd" d="M7.69795 8.99841C7.48703 8.99841 7.24978 9.03279 7.1707 8.92968L6.18653 7.66663C6.16016 7.64088 6.15137 7.60649 6.15137 7.56355V4.66797H8.84908V7.5807C8.84908 7.61509 8.83149 7.65803 8.81395 7.68382L7.83853 8.92968C7.80337 8.97266 7.75066 8.99841 7.69795 8.99841Z" fill="#4F8CCA"/>
</g>
</svg>
