<svg width="27" height="29" viewBox="0 0 27 29" fill="none" xmlns="http://www.w3.org/2000/svg">
<g clip-path="url(#clip0_2641_4465)">
<path d="M1.12226 0.759966C1.00999 0.882933 0.999297 0.920359 1.03138 1.32134C1.1383 2.68468 2.0472 3.87693 3.33034 4.34742C3.83825 4.5292 4.37289 4.58266 5.66673 4.58266H6.83759L6.85363 5.74284C6.86967 6.80143 6.88037 6.92974 6.98195 7.15429C7.14769 7.5125 7.44709 7.81725 7.7946 7.98833C8.094 8.13269 8.12074 8.13803 9.18468 8.15407L10.2647 8.17011V12.8643V17.5584L10.3823 17.7135C10.4464 17.799 11.1735 18.6438 11.9915 19.5901C12.9699 20.7289 13.5206 21.3277 13.6062 21.3491C13.681 21.3651 13.7986 21.3651 13.8681 21.3491C13.9697 21.3223 16.0388 18.9966 17.0707 17.7456L17.215 17.5638V14.666C17.215 11.811 17.215 11.7576 17.1027 11.6186C16.9584 11.4314 16.6429 11.4261 16.4772 11.6025C16.3596 11.7255 16.3596 11.7255 16.3596 14.4789V17.227L15.0657 18.724C14.3547 19.5473 13.7559 20.221 13.7345 20.221C13.7131 20.221 13.1143 19.5473 12.4086 18.7293L11.1201 17.2377V12.6985V8.16477H13.7398H16.3596V9.29286C16.3596 9.92374 16.381 10.4584 16.413 10.5172C16.4879 10.6562 16.7606 10.7417 16.9316 10.6722C17.199 10.5707 17.2097 10.5172 17.215 9.30356V8.17011L18.3003 8.15407C19.3589 8.13803 19.3857 8.13269 19.6851 7.98833C20.0326 7.81725 20.332 7.5125 20.4977 7.15429C20.5993 6.92974 20.61 6.79608 20.626 5.75353L20.6474 4.59335L22.0696 4.56662C23.1709 4.55058 23.5719 4.52385 23.8178 4.45435C25.2774 4.05336 26.32 2.80765 26.4429 1.33203C26.475 0.963129 26.4643 0.904318 26.3574 0.770658L26.2451 0.626305H13.7452H1.24523L1.12226 0.759966ZM25.5234 1.62609C25.4592 1.92549 25.1384 2.52963 24.9085 2.78626C24.6091 3.12843 24.1279 3.43318 23.6949 3.56684C23.3581 3.67377 23.1763 3.67377 13.7452 3.67377C3.21806 3.67377 3.93448 3.69515 3.29291 3.36902C2.97213 3.20328 2.51768 2.78626 2.29848 2.44944C2.15947 2.22489 1.92423 1.65282 1.92423 1.5245C1.92423 1.50312 7.24392 1.48173 13.7398 1.48173H25.5554L25.5234 1.62609ZM19.7706 5.63591C19.7546 6.63034 19.7492 6.70519 19.6316 6.89232C19.5621 7.00459 19.4177 7.13291 19.2787 7.19706C19.0542 7.30934 19.0061 7.30934 13.7345 7.30934H8.41479L8.17955 7.18637C8.00312 7.10083 7.90688 7.00459 7.82134 6.82816C7.70906 6.60896 7.69837 6.52341 7.69837 5.58779V4.58266H13.7452H19.792L19.7706 5.63591Z" fill="#01943C" stroke="#01943C" stroke-width="0.5"/>
<path d="M3.7444 12.9764C3.6054 13.1154 3.60005 13.4629 3.73371 13.5752C3.94222 13.7677 6.44435 15.115 6.58336 15.115C6.90949 15.115 7.12335 14.6766 6.91483 14.436C6.86137 14.3718 6.23584 13.9922 5.51942 13.5913C4.13469 12.8214 3.95826 12.7626 3.7444 12.9764Z" fill="#01943C"/>
<path d="M21.9474 13.5913C21.2417 13.9869 20.6215 14.3611 20.5734 14.4253C20.3595 14.6819 20.5573 15.115 20.8888 15.115C21.0545 15.115 23.5994 13.7303 23.7545 13.5538C23.8774 13.4095 23.8721 13.1101 23.7384 12.9764C23.5139 12.7519 23.3268 12.8214 21.9474 13.5913Z" fill="#01943C"/>
<path d="M2.30618 13.864C2.16183 14.0458 2.16183 14.2223 2.31688 14.388C2.49865 14.6019 8.04824 17.6814 8.24072 17.6814C8.57754 17.6814 8.78605 17.2483 8.57219 16.9971C8.51873 16.9329 7.20351 16.1737 5.6477 15.3076C2.56816 13.586 2.53608 13.57 2.30618 13.864Z" fill="#01943C"/>
<path d="M21.8651 15.2809C20.3521 16.1309 19.0475 16.8741 18.9673 16.9329C18.6626 17.1574 18.839 17.6814 19.224 17.6814C19.3309 17.6814 20.2772 17.1842 22.2126 16.0989C23.7738 15.2274 25.089 14.4789 25.1425 14.4308C25.2708 14.3185 25.2654 13.9336 25.1371 13.8159C24.8912 13.5914 24.7789 13.6448 21.8651 15.2809Z" fill="#01943C"/>
<path d="M1.90957 15.7246C1.86145 15.762 1.50324 16.3555 1.12364 17.0345C0.385834 18.3444 0.305637 18.5796 0.524841 18.7614C0.605037 18.8309 3.722 20.5792 4.16041 20.8037C4.49189 20.9748 4.81267 20.793 4.81267 20.4348C4.81267 20.3439 4.7806 20.2263 4.74852 20.1782C4.71109 20.1301 3.95725 19.6917 3.07509 19.1998C2.19293 18.7079 1.46581 18.3016 1.45512 18.2909C1.44443 18.2855 1.6369 17.922 1.88283 17.4836L2.32659 16.6816L7.94033 19.8253C12.1694 22.1938 13.5969 22.9744 13.7305 22.9744C13.8695 22.9744 15.2008 22.2526 19.4993 19.8467C22.5735 18.1251 25.1077 16.719 25.1291 16.719C25.1665 16.719 26.054 18.2748 26.0273 18.2962C26.0166 18.3016 23.2525 19.8467 19.8736 21.734L13.7359 25.1664L9.84901 22.9904C5.71622 20.6754 5.71622 20.6754 5.50236 20.9374C5.38474 21.0817 5.3687 21.3597 5.47028 21.4934C5.50236 21.5469 5.84988 21.7607 6.22948 21.9746L6.92451 22.3649L6.95125 25.1076C6.97798 27.7434 6.98332 27.8503 7.07956 27.9252C7.17045 27.9893 8.16488 28 13.7519 28H20.312L20.4242 27.8824C20.5312 27.7701 20.5312 27.7059 20.5312 25.0648L20.5365 22.3595L23.7444 20.5685C25.5087 19.5847 26.979 18.74 27.0057 18.6919C27.0324 18.6384 27.0538 18.5315 27.0538 18.4513C27.0538 18.2695 25.8188 16.0133 25.6049 15.7941C25.3376 15.5268 26.193 15.0884 17.9488 19.7023L13.7359 22.0601L8.19162 18.9538C5.14415 17.2483 2.55648 15.8048 2.44955 15.7513C2.21966 15.6337 2.04323 15.623 1.90957 15.7246ZM10.7365 24.4981C12.7789 25.6369 13.6343 26.0913 13.7466 26.086C13.8481 26.086 14.88 25.5406 16.671 24.5355C18.1894 23.6854 19.4886 22.9637 19.5581 22.9262L19.6757 22.8621V25.006V27.1446H13.7412H7.80667V25.0007C7.80667 23.8244 7.82271 22.8728 7.84945 22.8835C7.87083 22.8942 9.17001 23.6213 10.7365 24.4981Z" fill="#01943C" stroke="#01943C" stroke-width="0.5"/>
</g>
<defs>
<clipPath id="clip0_2641_4465">
<rect width="27" height="29" fill="white"/>
</clipPath>
</defs>
</svg>
