<svg width="36" height="36" viewBox="0 0 36 36" fill="none" xmlns="http://www.w3.org/2000/svg">
<g clip-path="url(#clip0_2177_491)">
<path d="M25.376 8.04051C25.7456 8.34649 25.9688 8.54018 26.0963 8.70207C26.163 8.78678 26.2078 8.8676 26.2343 8.95594C26.2603 9.04286 26.2661 9.12845 26.2661 9.21676C26.2661 9.67042 25.9004 10.0337 25.4411 10.0337C25.1533 10.0337 24.9534 9.9054 24.5152 9.52302C22.413 7.72253 19.9325 6.80327 17.1558 6.79534C15.867 6.79536 15.1022 6.89822 13.9848 7.23106L13.9844 7.23117C12.2666 7.73779 10.7453 8.66401 9.38762 10.0297L9.38731 10.03C7.69639 11.7209 6.68953 13.5675 6.15717 15.959C6.03977 16.4913 5.97584 17.2391 5.96986 17.9869C5.96388 18.7351 6.016 19.4701 6.12521 19.9771C6.24129 20.5135 6.35039 20.933 6.44416 21.2114C6.49132 21.3514 6.53215 21.4482 6.56477 21.5052C6.5795 21.5004 6.59535 21.4953 6.61189 21.4901C6.67405 21.4704 6.75676 21.4448 6.8538 21.4152C6.98937 21.3737 7.15394 21.3239 7.33111 21.2703C7.40761 21.2472 7.48645 21.2233 7.56632 21.1991L7.56682 21.199C9.60233 20.5899 12.3132 19.6115 14.4379 18.7135C15.0131 18.4698 15.4268 18.3354 15.7262 18.34C15.883 18.3424 16.019 18.3827 16.1301 18.473C16.2388 18.5613 16.3085 18.6853 16.3577 18.8262L16.3577 18.8264C16.4311 19.0373 16.4381 19.2426 16.362 19.4294C16.2865 19.615 16.1373 19.7623 15.936 19.8743C15.7067 20.0046 15.227 20.2149 14.6121 20.4644C13.993 20.7155 13.2276 21.0099 12.4211 21.3085C10.8089 21.9056 9.02704 22.5218 7.9169 22.8447L7.91657 22.8448C7.70807 22.905 7.51231 22.9629 7.36506 23.0087C7.30407 23.0276 7.25215 23.0443 7.21143 23.058C7.23705 23.1272 7.28381 23.2271 7.35153 23.3545C7.49203 23.6188 7.71209 23.9819 7.98378 24.3934C9.5683 26.7541 12.0809 28.4193 14.952 28.9983L14.9524 28.9984C15.467 29.1036 16.3041 29.152 17.1508 29.144C17.9974 29.136 18.8349 29.0718 19.35 28.9587L19.35 28.9586C24.6296 27.7995 28.0834 23.7887 28.369 18.498C28.3969 17.9755 28.4173 17.6708 28.4536 17.4752C28.4723 17.3748 28.4964 17.2951 28.5321 17.2253C28.568 17.1549 28.6118 17.1023 28.6588 17.0531C28.9522 16.7399 29.4268 16.7318 29.7765 17.0058L29.7776 17.0068C29.8259 17.0454 29.8795 17.0884 29.9219 17.1456C29.9675 17.2073 29.9944 17.2765 30.011 17.3627C30.0416 17.5212 30.0429 17.7751 30.0429 18.2248C30.0429 24.798 24.8215 30.3419 18.1799 30.8378L18.1799 30.8378C15.2297 31.0572 12.4483 30.3253 10.0018 28.6997L10.0016 28.6996C8.19685 27.4964 6.58763 25.6768 5.6834 23.8279C5.58454 23.6302 5.52975 23.5374 5.49029 23.4952C5.48528 23.4898 5.48153 23.4864 5.47899 23.4843C5.4762 23.4849 5.4721 23.4858 5.46643 23.4875L5.46644 23.4875L5.46415 23.4881C4.85295 23.6574 4.02153 23.7486 3.24658 23.7597C2.47698 23.7708 1.73458 23.7036 1.31184 23.5397L1.31159 23.5396C0.819961 23.3479 0.450455 23.094 0.205369 22.7507C-0.0403714 22.4064 -0.15 21.9877 -0.15 21.4873C-0.15 20.5965 0.202379 19.6276 0.863555 18.6399C1.08323 18.3084 1.24715 18.0888 1.41071 17.955C1.58755 17.8103 1.7586 17.7694 1.96875 17.7694C2.16772 17.7694 2.34178 17.8118 2.47811 17.9023C2.61715 17.9946 2.70586 18.1299 2.74194 18.2916C2.81169 18.6042 2.68373 18.9999 2.40637 19.4098L2.4059 19.4105C2.00934 19.9894 1.64047 20.7144 1.50982 21.1525L1.50966 21.153C1.45621 21.3299 1.44853 21.4702 1.47345 21.5804C1.49762 21.6873 1.55468 21.7765 1.65232 21.8515C1.85784 22.0094 2.24392 22.1047 2.85322 22.1087C3.16554 22.1087 3.68041 22.0654 4.13128 22.0104C4.35617 21.983 4.56211 21.953 4.71614 21.9247C4.78149 21.9127 4.83565 21.9014 4.87712 21.8911C4.87395 21.8713 4.86992 21.8486 4.86499 21.8231C4.8438 21.7133 4.80863 21.5645 4.76519 21.4065L4.76509 21.4062C3.74933 17.6763 4.35087 13.9669 6.48913 10.8042L6.48935 10.8038C6.83878 10.29 7.43518 9.61719 8.07087 8.98857C8.70663 8.35987 9.39145 7.7657 9.92126 7.41249L9.92138 7.41241C11.8123 6.15449 13.8356 5.39828 15.998 5.15435C16.907 5.04797 18.682 5.12941 19.6595 5.31677L19.6599 5.31684C21.7099 5.71546 23.7418 6.68279 25.376 8.04051ZM25.376 8.04051L25.2804 8.15605M25.376 8.04051C25.3761 8.04057 25.3761 8.04062 25.3762 8.04068L25.2804 8.15605M25.2804 8.15605C26.0277 8.7748 26.1161 8.8873 26.1161 9.21676C26.1161 9.58641 25.8187 9.88373 25.4411 9.88373C25.2161 9.88373 25.0554 9.79534 24.6134 9.40962L19.6312 5.46409C21.6562 5.85784 23.6652 6.81409 25.2804 8.15605ZM4.94775 21.8696C4.94748 21.8698 4.94717 21.8699 4.94683 21.8701C4.94719 21.87 4.94751 21.8698 4.94779 21.8697C4.94877 21.8692 4.9492 21.869 4.94916 21.869C4.94912 21.869 4.94862 21.8692 4.94775 21.8696Z" fill="#4F8CCA" stroke="#4F8CCA" stroke-width="0.3"/>
<path d="M19.9286 9.68371C19.4063 9.83639 18.8358 10.1498 18.7233 10.3667C18.6108 10.5676 18.6268 10.9453 18.7474 11.09C18.8197 11.1784 20.9893 13.123 21.8009 13.8221C21.8411 13.8542 21.4072 14.0632 20.8447 14.2801L19.8161 14.6819L19.2134 14.4891C18.2411 14.1757 17.1322 14.0391 16.0313 14.0953C15.2679 14.1275 15.0349 14.1676 14.8661 14.2882C14.5768 14.5051 14.4884 14.8105 14.6331 15.0998C14.6974 15.2364 15.4206 16.04 16.2402 16.8998C17.8313 18.5391 18.2411 18.8525 19.1572 19.0935C19.6554 19.2301 20.8125 19.2382 21.2545 19.1176C21.9536 18.9248 34.859 14.1194 35.1804 13.9346C35.6867 13.6373 36 13.0507 36 12.3917C36 11.7409 35.8634 11.4275 35.317 10.8569C34.5777 10.0775 33.734 9.76407 32.5608 9.82032C31.9018 9.85246 31.7492 9.90068 29.684 10.7123C28.3099 11.2587 27.4018 11.5721 27.209 11.5721C26.992 11.5721 26.6947 11.4435 26.092 11.09C25.1358 10.5355 24.0108 10.0534 23.1027 9.80425C22.2429 9.57121 20.5715 9.50693 19.9286 9.68371ZM22.6849 11.1221C23.5367 11.3391 24.4527 11.7409 25.6742 12.44L26.4777 12.898L27.2411 12.89H28.0045L30.1581 12.0301C32.0867 11.2587 32.3679 11.1703 32.8179 11.1703C33.9349 11.1703 35.0679 12.215 34.4974 12.7132C34.417 12.7855 31.3072 13.9667 27.5786 15.3409C21.134 17.7194 20.7804 17.84 20.2581 17.84C19.2295 17.84 18.7795 17.5828 17.5983 16.3051L16.7867 15.4373L17.2125 15.4855C17.4456 15.5096 18.0402 15.6382 18.5224 15.7667C19.9768 16.1605 19.792 16.1846 21.8331 15.381C23.4965 14.7301 23.6492 14.6498 23.7617 14.4167C23.85 14.2319 23.8661 14.1034 23.8099 13.9346C23.7456 13.7257 22.934 12.9623 21.0134 11.2828L20.6117 10.9292H21.2625C21.6884 10.9292 22.1867 10.9935 22.6849 11.1221Z" fill="#4F8CCA"/>
</g>
<defs>
<clipPath id="clip0_2177_491">
<rect width="36" height="36" fill="white" transform="translate(0 -0.000732422)"/>
</clipPath>
</defs>
</svg>
