<svg width="40" height="52" viewBox="0 0 40 52" fill="none" xmlns="http://www.w3.org/2000/svg">
<path d="M6.0961 0.213251C5.59844 0.507782 5.40547 0.792157 5.2836 1.35075C5.15157 1.94997 5.14141 7.607 5.27344 8.16559C5.38516 8.65309 5.63907 9.01872 6.08594 9.31325C6.40079 9.52653 6.53282 9.54684 7.975 9.54684H9.53907V11.7812C9.53907 13.782 9.55938 14.0664 9.73203 14.4015C9.8336 14.6047 11.0016 16.575 12.3219 18.7687L14.7188 22.7601V24.4054C14.7188 25.9492 14.7391 26.0812 14.9828 26.6093C15.257 27.1882 17.1766 30.3875 17.4508 30.7125C17.6742 30.9765 18.3648 31.2812 18.7609 31.2812H19.0859V33.0992C19.0859 34.4601 19.0555 34.9273 18.9641 34.9679C18.893 34.9984 14.8102 36.6031 9.89453 38.5328C4.97891 40.4625 0.845316 42.1078 0.713285 42.1789C0.337504 42.3718 0.0937538 42.8492 0.0937538 43.3875C0.0937538 44.2914 -0.160152 44.1593 8.06641 47.4906C19.807 52.2437 19.157 52 20.0203 52C20.7516 52 20.8633 51.9593 24.9258 50.3242C27.2211 49.3898 31.375 47.714 34.168 46.5867C37.3469 45.307 39.3578 44.4437 39.5406 44.2711C39.7844 44.0578 39.8453 43.9054 39.8758 43.4586C39.9164 43.0015 39.8859 42.8492 39.6828 42.5547C39.4492 42.2195 39.0125 42.0265 30.1766 38.5429L20.9141 34.8968V33.0992V31.3117L21.4016 31.2406C22.2547 31.1289 22.4781 30.8851 23.8289 28.6304C24.5195 27.4929 25.1188 26.3961 25.1797 26.2031C25.2305 26.0101 25.2813 25.157 25.2813 24.3039V22.7601L27.6781 18.7687C28.9984 16.575 30.1664 14.6047 30.268 14.4015C30.4406 14.0664 30.4609 13.782 30.4609 11.7812V9.54684H32.025C33.4773 9.54684 33.5992 9.52653 33.9242 9.31325C34.4117 8.98825 34.7063 8.50075 34.7773 7.89138C34.818 7.59684 34.8281 5.99216 34.8078 4.31638C34.7773 1.33044 34.7773 1.25934 34.5336 0.853094C34.4016 0.619501 34.1273 0.335126 33.9141 0.213251L33.5281 -3.05175e-05H19.9898C6.46172 -3.05175e-05 6.44141 -3.05175e-05 6.0961 0.213251ZM8.72657 2.84372C8.72657 3.79841 8.74688 3.88981 8.98047 4.11325C9.30547 4.44841 9.8336 4.44841 10.2195 4.12341C10.4938 3.88981 10.5039 3.82888 10.5344 2.85388L10.575 1.82809H11.3773H12.1797V2.84372C12.1797 3.79841 12.2 3.88981 12.4336 4.11325C12.7891 4.47888 13.3273 4.45856 13.7133 4.07263C13.9977 3.78825 14.0078 3.73747 14.0078 2.80309V1.82809H14.8203H15.6328V2.84372C15.6328 3.79841 15.6531 3.88981 15.8867 4.11325C16.2625 4.49919 16.8516 4.46872 17.1969 4.05231C17.4406 3.76794 17.4609 3.66638 17.4609 2.78278V1.82809H18.2734H19.0859V2.75231C19.0859 3.99138 19.2992 4.357 20 4.357C20.7008 4.357 20.9141 3.99138 20.9141 2.75231V1.82809H21.7266H22.5391V2.78278C22.5391 3.66638 22.5594 3.76794 22.8031 4.05231C23.1484 4.46872 23.7375 4.49919 24.1133 4.11325C24.3469 3.88981 24.3672 3.79841 24.3672 2.84372V1.82809H25.1797H25.9922V2.80309C25.9922 3.73747 26.0023 3.78825 26.2867 4.07263C26.6727 4.45856 27.2109 4.47888 27.5664 4.11325C27.8 3.88981 27.8203 3.79841 27.8203 2.84372V1.82809H28.6227H29.425L29.4656 2.85388C29.4961 3.82888 29.5063 3.88981 29.7805 4.12341C30.1664 4.44841 30.6945 4.44841 31.0195 4.11325C31.2531 3.88981 31.2734 3.79841 31.2734 2.84372V1.82809H32.1367H33V4.77341V7.71872H20H7V4.77341V1.82809H7.86329H8.72657V2.84372ZM28.6328 11.2734V13H23.6766H18.7102L18.4867 13.2437C18.1516 13.6093 18.1617 14.1476 18.507 14.5031L18.7813 14.7773L23.3109 14.8078C25.7992 14.8179 27.8203 14.8687 27.8 14.9195C27.7797 14.9703 26.8758 16.4937 25.7891 18.3117L23.8086 21.6226H20H16.1914L14.2109 18.3117C13.1242 16.4937 12.2203 14.9601 12.2 14.9195C12.1797 14.8687 12.7586 14.8281 13.4898 14.8281C15.0336 14.8281 15.4297 14.7164 15.6227 14.2289C15.7852 13.8632 15.7039 13.4773 15.4297 13.2031C15.2367 13.0101 15.0844 13 13.2969 13H11.3672V11.2734V9.54684H20H28.6328V11.2734ZM23.4531 24.5476V25.6343L22.3156 27.5437L21.168 29.4531H20H18.832L17.6844 27.5437L16.5469 25.6343V24.5476V23.4609H20H23.4531V24.5476ZM19.0859 39.8023V42.7273L14.9117 44.657L10.7375 46.5867L7.62969 45.3273C5.91329 44.6265 4.10547 43.8953 3.60782 43.7023L2.70391 43.3367L3.70938 42.9406C4.58282 42.5953 18.9945 36.9078 19.0656 36.8773C19.0758 36.8672 19.0859 38.1875 19.0859 39.8023ZM30.9891 40.8484C34.432 42.2093 37.2047 43.3468 37.1336 43.3875C37.0625 43.4179 33.2742 44.9617 28.7141 46.8101C23.0063 49.1257 20.2945 50.1718 20.0305 50.1718C19.7664 50.182 18.6289 49.7757 16.425 48.882C14.6477 48.1711 13.1953 47.5617 13.1953 47.5312C13.1953 47.5007 14.8711 46.6984 16.9125 45.7539C18.9742 44.7992 20.7008 43.9359 20.7719 43.8242C20.8836 43.6617 20.9141 42.9609 20.9141 40.2593V36.8875L22.8234 37.639C23.8695 38.0554 27.5461 39.4976 30.9891 40.8484Z" fill="#4F8CCA"/>
<path d="M37.6312 11.8932C36.1687 12.4823 35.1328 13.5995 34.6047 15.1229C34.4219 15.651 34.3711 16.0065 34.3812 16.8089C34.3914 17.8651 34.4523 18.1292 35.0922 19.6018C35.468 20.4854 35.5086 21.7346 35.1633 22.4659C34.8383 23.187 34.168 23.7862 33.1828 24.2534C32.7055 24.4768 32.2891 24.7409 32.2484 24.8323C32.1062 25.2081 32.1875 25.7057 32.4414 25.9495C32.8172 26.3253 33.2844 26.2846 34.3203 25.7768C35.8133 25.0354 36.8594 23.7456 37.1742 22.2628C37.3875 21.2268 37.2453 20.1198 36.7476 18.7893C36.3312 17.7026 36.3008 17.5503 36.3008 16.6565C36.3008 15.8643 36.3414 15.6206 36.5242 15.2753C36.8492 14.6659 37.7531 13.8839 38.4539 13.6096C39.1242 13.3456 39.5 13.0003 39.5 12.6346C39.5 12.3096 39.2461 11.8221 39.043 11.7409C38.7383 11.6292 38.1289 11.6901 37.6312 11.8932Z" fill="#4F8CCA"/>
<path d="M31.3547 20.3521C29.4555 21.1342 28.3383 22.3935 27.9524 24.2115C27.7188 25.3389 27.8813 26.3849 28.5313 27.9795C28.9781 29.0459 29.0086 30.1224 28.643 30.9451C28.3383 31.6357 27.6172 32.306 26.693 32.7529C25.8906 33.1389 25.6977 33.3318 25.6875 33.7381C25.6774 34.4795 26.2055 34.8553 26.9774 34.642C27.8305 34.4185 28.5719 33.9818 29.2422 33.3115C30.2883 32.2654 30.7656 31.1076 30.7656 29.6045C30.7656 28.6803 30.6235 28.081 30.1766 27.0654C29.5774 25.6842 29.5571 24.6889 30.1258 23.6428C30.4813 23.0029 31.0297 22.5459 31.9946 22.099C32.9696 21.6623 33.1828 21.2764 32.8477 20.6162C32.7156 20.3521 32.6039 20.2912 32.086 20.1592C32.0047 20.1287 31.6797 20.2201 31.3547 20.3521Z" fill="#4F8CCA"/>
</svg>
