<svg width="16" height="16" viewBox="0 0 16 16" fill="none" xmlns="http://www.w3.org/2000/svg">
<path d="M15.5312 12.1198H8.46884V8.99268L9.53689 7.71099C9.60724 7.6269 9.64569 7.52064 9.64569 7.41095V6.23255H10.824C11.0832 6.23255 11.2929 6.0225 11.2929 5.7637V4.81846C11.2929 4.55953 11.083 4.34961 10.824 4.34961H5.17591C4.91698 4.34961 4.70702 4.55953 4.70702 4.81846V5.7637C4.70702 6.0225 4.9168 6.23255 5.17591 6.23255H6.35431V7.41095C6.35431 7.52064 6.39276 7.6269 6.46307 7.71099L7.53111 8.99268V12.1198H0.468858C0.209923 12.1198 0 12.3297 0 12.5886V14.4714C0 14.7304 0.209923 14.9403 0.468858 14.9403H15.5312C15.7901 14.9403 16 14.7304 16 14.4714V12.5886C16 12.3297 15.7901 12.1198 15.5312 12.1198Z" fill="#4F8CCA"/>
<path d="M10.4927 8.50452L9.32776 9.66945C9.14465 9.85257 9.14465 10.1494 9.32776 10.3325C9.51083 10.5156 9.80767 10.5156 9.99079 10.3325L11.1557 9.16759C11.3388 8.98448 11.3388 8.68763 11.1557 8.50452C10.9726 8.32141 10.6757 8.32141 10.4927 8.50452Z" fill="#4F8CCA"/>
<path d="M12.5991 9.43421L11.4342 10.5991C11.2511 10.7823 11.2511 11.0791 11.4342 11.2622C11.6173 11.4453 11.9142 11.4453 12.0972 11.2622L13.2622 10.0973C13.4453 9.91416 13.4453 9.61732 13.2622 9.43421C13.0791 9.2511 12.7822 9.2511 12.5991 9.43421Z" fill="#4F8CCA"/>
<path d="M6.34081 10.4698C6.75476 10.4698 6.96854 9.96563 6.67232 9.66941L5.50739 8.50452C5.32432 8.32141 5.02743 8.32141 4.84436 8.50452C4.66125 8.68759 4.66125 8.98448 4.84436 9.16754L6.00925 10.3325C6.10081 10.424 6.22081 10.4698 6.34081 10.4698Z" fill="#4F8CCA"/>
<path d="M2.73791 9.43421C2.55481 9.61732 2.55481 9.91416 2.73791 10.0973L3.90284 11.2622C4.08591 11.4453 4.38279 11.4453 4.56589 11.2622C4.749 11.0791 4.749 10.7823 4.56589 10.5991L3.40097 9.43421C3.21787 9.2511 2.92099 9.2511 2.73791 9.43421Z" fill="#4F8CCA"/>
<path d="M0.939561 1.99631H3.29485V2.94322C3.29485 3.20215 3.50477 3.41207 3.76371 3.41207H12.2363C12.4952 3.41207 12.7051 3.20215 12.7051 2.94322V1.99631H15.0604C15.3193 1.99631 15.5293 1.78638 15.5293 1.52745C15.5293 1.26852 15.3193 1.05859 15.0604 1.05859H0.939561C0.680628 1.05859 0.470703 1.26852 0.470703 1.52745C0.470703 1.78638 0.680628 1.99631 0.939561 1.99631Z" fill="#4F8CCA"/>
</svg>
