<svg width="16" height="16" viewBox="0 0 16 16" fill="none" xmlns="http://www.w3.org/2000/svg">
<path d="M3.50625 1.25625C3.48438 1.27812 3.46875 1.32812 3.46875 1.36875C3.46875 1.49062 4.1625 3.98125 4.2125 4.0375C4.25625 4.09062 4.47813 4.09375 8.04688 4.09375C11.0938 4.09375 11.8438 4.08437 11.8688 4.05312C11.9 4.01875 12.4063 1.47187 12.4063 1.35937C12.4063 1.3375 12.3844 1.29375 12.3563 1.26875C12.3125 1.225 11.8688 1.21875 7.925 1.21875C4.55938 1.21875 3.53438 1.22812 3.50625 1.25625Z" fill="#3C5B8A"/>
<path d="M1.78408 4.55009C1.70283 4.65321 1.6997 4.75321 1.7747 4.84071C1.86845 4.95321 2.41845 5.37509 2.49658 5.39696C2.66533 5.44071 2.83095 5.24071 2.75595 5.08134C2.7372 5.04071 2.57158 4.88446 2.39033 4.73759C2.00908 4.43134 1.90283 4.40009 1.78408 4.55009Z" fill="#3C5B8A"/>
<path d="M13.6093 4.73759C13.428 4.88446 13.2624 5.04071 13.2437 5.08134C13.1687 5.24071 13.3343 5.44071 13.503 5.39696C13.5812 5.37509 14.1312 4.95321 14.228 4.84071C14.3468 4.69696 14.2374 4.46884 14.0468 4.46884C13.9655 4.46884 13.878 4.52196 13.6093 4.73759Z" fill="#3C5B8A"/>
<path d="M6.8125 4.80308V5.1062L6.93125 4.99995C7.2125 4.74058 7.40625 4.54683 7.40625 4.52495C7.40625 4.51245 7.27188 4.49995 7.10938 4.49995H6.8125V4.80308Z" fill="#3C5B8A"/>
<path d="M7.38438 5.03435L6.8125 5.56873V5.97498C6.8125 6.20935 6.825 6.37498 6.84063 6.36873C6.88125 6.35623 8.79375 4.56248 8.80625 4.5281C8.8125 4.51248 8.625 4.49998 8.38438 4.49998H7.95313L7.38438 5.03435Z" fill="#3C5B8A"/>
<path d="M7.9125 5.84375L6.8125 6.87812V7.28125C6.8125 7.50625 6.82188 7.6875 6.83125 7.6875C6.84063 7.6875 7.34688 7.21875 7.95625 6.64687L9.0625 5.60937V5.20937C9.0625 4.99062 9.05 4.8125 9.0375 4.8125C9.02188 4.8125 8.51563 5.27812 7.9125 5.84375Z" fill="#3C5B8A"/>
<path d="M3.33093 5.7782C3.29343 5.81883 3.28093 5.8782 3.28718 5.95633C3.29655 6.0657 3.32468 6.09695 3.59343 6.32195C3.94655 6.60945 4.0403 6.6657 4.13405 6.63758C4.25593 6.60008 4.31218 6.5282 4.31218 6.4032C4.31218 6.28758 4.29655 6.27195 3.96218 6.00008C3.6653 5.76258 3.59343 5.71883 3.49655 5.71883C3.42468 5.71883 3.3653 5.7407 3.33093 5.7782Z" fill="#3C5B8A"/>
<path d="M12.0375 6.00008C11.7031 6.27195 11.6875 6.28758 11.6875 6.4032C11.6875 6.5282 11.7437 6.60008 11.8656 6.63758C11.9594 6.6657 12.0531 6.60945 12.4062 6.32195C12.675 6.09695 12.7031 6.0657 12.7125 5.95633C12.725 5.80008 12.6531 5.71883 12.5031 5.71883C12.4062 5.71883 12.3344 5.76258 12.0375 6.00008Z" fill="#3C5B8A"/>
<path d="M7.925 7.13135L6.81563 8.17197L6.8125 8.59072V9.00635L6.98438 8.85635C7.07813 8.77197 7.58438 8.30322 8.10625 7.8126L9.05938 6.92197V6.50635C9.0625 6.28135 9.05625 6.09385 9.05 6.09385C9.04063 6.09385 8.53438 6.5626 7.925 7.13135Z" fill="#3C5B8A"/>
<path d="M4.89044 7.01571C4.80606 7.09696 4.78731 7.23759 4.85294 7.31884C4.87169 7.34384 5.03419 7.48134 5.21231 7.62196C5.49669 7.85009 5.54356 7.87821 5.64669 7.86884C5.79356 7.85634 5.89044 7.73759 5.85919 7.60009C5.84356 7.52821 5.75606 7.44071 5.48106 7.22196C5.09044 6.91259 5.01544 6.88759 4.89044 7.01571Z" fill="#3C5B8A"/>
<path d="M10.5188 7.22196C10.2438 7.44071 10.1563 7.52821 10.1406 7.60009C10.1094 7.73759 10.2063 7.85634 10.3531 7.86884C10.4563 7.87821 10.5031 7.85009 10.7875 7.62196C10.9656 7.48134 11.1281 7.34384 11.15 7.31884C11.2531 7.19071 11.125 6.93759 10.9563 6.93759C10.9063 6.93759 10.7531 7.03759 10.5188 7.22196Z" fill="#3C5B8A"/>
<path d="M1.53749 7.11243C1.46249 7.16556 1.44374 7.33118 1.49999 7.43743C1.54062 7.50931 2.37187 7.79056 2.45937 7.75931C2.49062 7.74993 2.54062 7.71868 2.57187 7.69368C2.64374 7.63118 2.64374 7.43118 2.57187 7.36868C2.50937 7.31556 1.76874 7.06243 1.67187 7.06243C1.63749 7.06243 1.57499 7.08431 1.53749 7.11243Z" fill="#3C5B8A"/>
<path d="M14.0092 7.19693C13.7999 7.2688 13.603 7.35318 13.5749 7.3813C13.4655 7.49068 13.5217 7.6938 13.678 7.75318C13.7686 7.78755 14.528 7.55318 14.6249 7.46255C14.7092 7.38443 14.7061 7.2063 14.6249 7.12505C14.5374 7.03755 14.4467 7.05005 14.0092 7.19693Z" fill="#3C5B8A"/>
<path d="M8.07172 8.29062C7.55297 8.775 7.12797 9.18125 7.12797 9.19375C7.12484 9.20937 7.32172 9.21875 7.55922 9.21875H7.99359L8.52797 8.71562L9.06234 8.2125V7.80937C9.06234 7.5875 9.05297 7.40625 9.04047 7.40625C9.02484 7.40937 8.59047 7.80625 8.07172 8.29062Z" fill="#3C5B8A"/>
<path d="M3.40635 7.7813C3.3251 7.86255 3.32198 8.04068 3.40635 8.1188C3.50323 8.20943 4.2626 8.4438 4.35323 8.40943C4.5126 8.34693 4.56573 8.1438 4.4501 8.03443C4.38448 7.97193 3.65323 7.7188 3.5376 7.7188C3.5001 7.7188 3.44073 7.74693 3.40635 7.7813Z" fill="#3C5B8A"/>
<path d="M12.0439 7.85313C11.8345 7.925 11.6408 8.00313 11.6127 8.02813C11.5439 8.08438 11.547 8.29063 11.6189 8.35C11.647 8.375 11.7002 8.40625 11.7314 8.41875C11.8189 8.45 12.647 8.16563 12.6877 8.09375C12.7752 7.92813 12.6752 7.71563 12.5095 7.72188C12.4595 7.72188 12.2502 7.78125 12.0439 7.85313Z" fill="#3C5B8A"/>
<path d="M8.75 8.96875L8.48438 9.21562L8.775 9.21875H9.0625V8.96875C9.0625 8.83125 9.05313 8.71875 9.04063 8.71875C9.025 8.72187 8.89688 8.83125 8.75 8.96875Z" fill="#3C5B8A"/>
<path d="M0.459293 9.33752C0.384293 9.42189 0.390543 9.60314 0.471793 9.67502C0.528043 9.72502 0.596793 9.73752 0.931168 9.74377C1.38429 9.75627 1.53429 9.72502 1.58742 9.60939C1.64054 9.49689 1.63429 9.45939 1.55929 9.36252L1.49679 9.28127H1.00304C0.565543 9.28127 0.503043 9.28752 0.459293 9.33752Z" fill="#3C5B8A"/>
<path d="M2.43762 9.34375C2.3595 9.42187 2.35637 9.56562 2.4345 9.65937C2.49387 9.73125 2.50637 9.73438 2.9845 9.73438C3.46262 9.73438 3.47512 9.73125 3.5345 9.65937C3.61262 9.56562 3.6095 9.42187 3.53137 9.34375C3.47512 9.2875 3.42825 9.28125 2.9845 9.28125C2.54075 9.28125 2.49387 9.2875 2.43762 9.34375Z" fill="#3C5B8A"/>
<path d="M4.42511 9.32817C4.35323 9.40317 4.33448 9.49692 4.37511 9.59692C4.43136 9.72505 4.56573 9.7563 5.03761 9.7438C5.49386 9.7313 5.56261 9.70005 5.56261 9.50005C5.56261 9.29692 5.51573 9.2813 4.95948 9.2813C4.56886 9.2813 4.46261 9.29067 4.42511 9.32817Z" fill="#3C5B8A"/>
<path d="M10.4905 9.33752C10.4155 9.42189 10.4218 9.60314 10.503 9.67502C10.5593 9.72502 10.628 9.73752 10.9624 9.74377C11.4155 9.75627 11.5655 9.72502 11.6187 9.60939C11.6718 9.49689 11.6655 9.45939 11.5905 9.36252L11.528 9.28127H11.0343C10.5968 9.28127 10.5343 9.28752 10.4905 9.33752Z" fill="#3C5B8A"/>
<path d="M12.4689 9.34375C12.3907 9.42187 12.3876 9.56562 12.4657 9.65937C12.5251 9.73125 12.5376 9.73438 13.0157 9.73438C13.4939 9.73438 13.5064 9.73125 13.5657 9.65937C13.6439 9.56562 13.6407 9.42187 13.5626 9.34375C13.5064 9.2875 13.4595 9.28125 13.0157 9.28125C12.572 9.28125 12.5251 9.2875 12.4689 9.34375Z" fill="#3C5B8A"/>
<path d="M14.4404 9.36252C14.3654 9.45939 14.3592 9.49689 14.4123 9.60939C14.4654 9.72502 14.6154 9.75627 15.0685 9.74377C15.5248 9.73127 15.5935 9.70002 15.5935 9.50002C15.5935 9.29689 15.5467 9.28127 14.9904 9.28127H14.5029L14.4404 9.36252Z" fill="#3C5B8A"/>
<path d="M2.37813 10.7062C2.31563 10.7844 2.3125 10.8281 2.3125 11.5812V12.375H7.92188H13.5313V11.5906C13.5313 10.8219 13.5188 10.7125 13.425 10.65C13.4063 10.6375 10.9281 10.625 7.91563 10.625H2.44063L2.37813 10.7062Z" fill="#3C5B8A"/>
<path d="M0.928125 12.8687C0.88125 12.9187 0.875 13.0312 0.875 13.8062C0.875 14.6781 0.875 14.6844 0.94375 14.7312C1.00625 14.775 1.72188 14.7812 7.94063 14.7812H14.8719L14.9344 14.7C14.9969 14.6219 15 14.5781 15 13.7969C15 13.0156 14.9969 12.9719 14.9344 12.8937L14.8719 12.8125H7.925C1.23438 12.8125 0.975 12.8156 0.928125 12.8687Z" fill="#3C5B8A"/>
</svg>
