<svg width="124" height="124" viewBox="0 0 124 124" fill="none" xmlns="http://www.w3.org/2000/svg">
<g clip-path="url(#clip0_2334_1510)">
<path d="M86.461 0.387421C74.2789 3.00304 64.8578 12.6905 62.4602 25.0179C61.6852 28.9898 61.8789 35.4562 62.8719 38.7984C62.993 39.2101 61.8547 39.2343 41.3172 39.2343C29.3774 39.2343 19.6172 39.2101 19.6172 39.1617C19.6172 39.1374 19.2297 37.0304 18.7695 34.5116C18.0188 30.3945 17.8734 29.8616 17.3164 29.3531C16.6867 28.8202 16.6141 28.8202 8.93672 28.8202H1.18672L0.605469 29.4257C-0.242188 30.2491 -0.242188 31.7507 0.605469 32.5741L1.18672 33.1796H7.60469H14.0469L14.168 33.7124C14.2164 34.0273 16.2992 45.6523 18.7695 59.5781C21.2398 73.5038 23.4922 86.0007 23.7586 87.3812L24.2672 89.8757L21.8211 93.5812C18.8906 98.0132 18.6 98.6914 18.5758 100.774C18.5273 103.608 20.368 106.272 22.9594 107.144C23.7586 107.434 25.018 107.531 27.4156 107.531H30.782L30.1766 108.573C28.9172 110.704 28.5055 113.925 29.1594 116.395C29.9344 119.302 32.1625 121.99 34.8023 123.225C36.0133 123.782 36.5945 123.879 38.8711 123.952C41.9711 124.048 43.4727 123.637 45.5555 122.062C48.4133 119.907 49.7938 116.904 49.6 113.102C49.5031 111.261 49.382 110.728 48.6555 109.251L47.8078 107.531H57.8102C63.3078 107.531 67.8125 107.604 67.8125 107.725C67.8125 107.822 67.643 108.161 67.425 108.452C66.1172 110.341 65.7055 114.482 66.5774 117.049C67.4734 119.665 69.5078 121.917 72.0508 123.177C73.407 123.83 73.6977 123.879 76.4102 123.879C79.1711 123.879 79.3891 123.83 80.9391 123.104C86.1946 120.634 88.3742 114.191 85.7586 108.984L85.0563 107.531H88.3742C91.4016 107.531 91.7891 107.483 92.3703 107.023C92.8547 106.635 93 106.32 93 105.594C93 104.334 92.8063 103.947 92.007 103.535C91.4258 103.22 86.7758 103.172 57.9555 103.172C20.8766 103.172 23.8313 103.317 23.1047 101.573C22.6445 100.508 22.8141 100.12 25.5992 95.9062L27.7547 92.6367L58.4399 91.014L89.1492 89.4156L90.457 88.7617C91.1836 88.4226 92.225 87.6234 92.7578 87.0179C93.8719 85.7585 93.775 86.0007 98.5219 70.4038L101.404 60.9827L103.172 60.3773C105.715 59.5296 109.445 57.5679 111.697 55.8968C117.8 51.3679 122.063 44.6593 123.637 37.1031C124.194 34.4148 124.121 26.907 123.54 24.2187C120.924 12.4968 112.06 3.41477 100.508 0.605392C98.1828 0.0483627 97.5289 -7.62939e-05 93 0.0241394C89.7305 0.0241394 87.5024 0.145233 86.461 0.387421ZM97.7711 4.72259C103.341 5.78821 107.652 8.08898 111.794 12.2062C117.122 17.5585 119.616 23.4921 119.641 31.0241C119.641 36.4007 118.188 41.2687 115.16 45.8945C113.949 47.7593 109.759 51.9492 107.895 53.1601C100.847 57.7617 92.3219 58.8999 84.5235 56.3085C80.4547 54.9523 77.5242 53.0874 74.2063 49.7937C70.961 46.5484 69.0719 43.5452 67.6914 39.4523C65.8992 34.1726 65.8992 27.8031 67.6914 22.4991C69.0961 18.4304 70.9367 15.4999 74.2063 12.2062C78.2992 8.13742 82.5617 5.83664 88.0594 4.7468C90.3602 4.28664 95.3977 4.28664 97.7711 4.72259ZM65.2695 45.0952C68.757 52.3124 75.5625 58.1249 83.4336 60.6437C86.582 61.6367 89.125 61.9999 92.9031 61.9999C94.8164 61.9999 96.3906 62.0484 96.3906 62.121C96.3906 62.1937 94.9133 67.0617 93.1211 72.9468C89.4883 84.8867 89.5125 84.8382 87.3813 85.1046C86.8 85.1773 76.5797 85.7343 64.6641 86.3398C52.7484 86.9453 39.743 87.6234 35.7711 87.8414C31.7992 88.0351 28.5055 88.1562 28.4328 88.0835C28.3602 88.0109 26.568 78.2265 24.4367 66.3109C22.3297 54.4195 20.5375 44.4413 20.4648 44.1265L20.3438 43.5937H42.4313H64.543L65.2695 45.0952ZM41.7289 108.234C44.6836 109.566 46.0641 113.029 44.8047 115.959C43.4 119.205 39.743 120.561 36.6188 119.011C32.6711 117.049 32.0656 111.987 35.4078 109.13C37.2484 107.531 39.5008 107.216 41.7289 108.234ZM78.2024 107.919C81.0602 108.766 82.9735 111.915 82.3922 114.748C81.3508 119.713 75.2961 121.336 71.9781 117.558C69.5078 114.773 70.1617 110.437 73.3344 108.573C75.1508 107.507 76.3133 107.337 78.2024 107.919Z" fill="#4F8CCA"/>
<path d="M85.5892 19.8836C84.1507 19.2328 82.3183 20.346 82.3696 21.8358L82.3868 22.6065L92.5763 32.796L102.783 43.0026L103.536 42.9684C104.667 42.9341 105.694 41.8381 105.66 40.7079L105.626 39.8516L95.7958 29.9532C90.3842 24.5074 85.7776 19.9692 85.5892 19.8836Z" fill="#4F8CCA"/>
<path d="M105.448 22.7737C106.099 21.3352 104.986 19.5028 103.496 19.5542L102.725 19.5713L92.5358 29.7608L82.3291 39.9675L82.3634 40.721C82.3976 41.8513 83.4937 42.8788 84.6239 42.8445L85.4802 42.8103L95.3786 32.9804C100.824 27.5688 105.363 22.9621 105.448 22.7737Z" fill="#4F8CCA"/>
<path d="M32.4531 53.693C30.9757 54.25 30.4671 56.3328 31.557 57.35L32.114 57.8828H46.5242H60.9585L61.4671 57.3258C62.2421 56.5023 62.1937 55.0008 61.3703 54.2258L60.7406 53.6445L46.7906 53.5961C39.1132 53.5719 32.6468 53.6203 32.4531 53.693Z" fill="#4F8CCA"/>
<path d="M33.6641 70.6703C33.3492 70.9125 33.107 71.4695 33.0102 72.075C32.9133 72.8742 32.9859 73.1648 33.4945 73.7703L34.1 74.4727H58.8031H83.5063L84.136 73.8914C84.9836 73.0922 85.0078 71.6633 84.1602 70.8398L83.5789 70.2344H58.9C35.6742 70.2344 34.1727 70.2586 33.6641 70.6703Z" fill="#4F8CCA"/>
</g>
<defs>
<clipPath id="clip0_2334_1510">
<rect width="124" height="124" fill="white"/>
</clipPath>
</defs>
</svg>
