<svg width="250" height="259" viewBox="0 0 250 259" fill="none" xmlns="http://www.w3.org/2000/svg">
<path d="M137.907 208.56H55.6458C33.4724 208.56 13.5654 193.974 6.4702 172.069C6.30989 171.575 6.15203 171.073 5.996 170.565C-0.144061 150.56 -3.47812 127.251 16.9282 96.0947C37.3345 64.9383 23.3363 35.7147 49.573 25.0761C75.8098 14.4374 97.0954 27.7031 126.976 14.7848C156.856 1.86657 216.618 2.62665 220.261 55.0597C223.906 107.493 209.329 105.213 215.16 122.691C220.99 140.169 240.668 213.12 137.907 208.56Z" fill="#E4F1FF"/>
<path d="M64.7533 255.556C97.1317 255.556 123.38 248.492 123.38 239.779C123.38 231.065 97.1317 224.002 64.7533 224.002C32.3748 224.002 6.12695 231.065 6.12695 239.779C6.12695 248.492 32.3748 255.556 64.7533 255.556Z" fill="#E4F1FF"/>
<path d="M5.41406 208.723H244.13" stroke="#1C004F" stroke-width="0.5" stroke-miterlimit="10" stroke-linecap="round"/>
<path d="M37.4619 245.756L86.2618 245.809C87.8317 245.811 89.1063 244.53 89.1076 242.948L89.1601 194.348L37.517 194.293L37.4619 245.756Z" fill="#9FCCFB"/>
<path d="M37.5179 194.29L89.1365 194.346L72.8839 181.3C71.7576 180.396 70.3547 179.902 68.9078 179.9L25.6922 179.854C24.617 179.852 24.0827 181.153 24.8502 181.903L37.5179 194.29Z" fill="#9FCCFB"/>
<path d="M23.0021 228.753L22.8408 184.035C22.8447 180.628 25.0403 180.07 25.0403 180.07L24.642 180.911C24.447 181.343 24.8544 181.848 25.1932 182.181L37.5235 194.292L37.4678 245.753L24.5889 232.615C23.5766 231.582 23.0073 230.197 23.0021 228.753Z" fill="#9FCCFB"/>
<path d="M51.8818 194.308L39.672 194.295C38.4822 194.294 37.5165 195.264 37.5152 196.463L37.501 209.45" stroke="white" stroke-width="0.5" stroke-miterlimit="10"/>
<path d="M37.4927 217.664L37.4648 243.586" stroke="white" stroke-width="0.5" stroke-miterlimit="10"/>
<path d="M29.8936 186.867L37.4518 194.291" stroke="white" stroke-width="0.5" stroke-miterlimit="10"/>
<path d="M24.9685 180.07L24.5702 180.911C24.3752 181.343 24.7826 181.848 25.1213 182.181L28.5682 185.567" stroke="white" stroke-width="0.5" stroke-miterlimit="10"/>
<path d="M158.183 208.98H90.4529C84.3914 208.98 79.4775 204.03 79.4775 197.924V48.2351C79.4775 42.1294 84.3914 37.1797 90.4529 37.1797H158.183C164.245 37.1797 169.159 42.1294 169.159 48.2351V197.924C169.159 204.03 164.245 208.98 158.183 208.98Z" fill="#1C004F"/>
<path d="M158.832 204.721H89.805C86.2486 204.721 83.3652 201.817 83.3652 198.234V47.9242C83.3652 44.342 86.2486 41.4375 89.805 41.4375H158.832C162.388 41.4375 165.271 44.342 165.271 47.9242V198.234C165.271 201.817 162.389 204.721 158.832 204.721Z" fill="white"/>
<path d="M137.936 51.2643H110.7C107.336 51.2643 104.608 48.5171 104.608 45.1279V39.6361C104.608 39.456 104.753 39.3105 104.932 39.3105H144.029V45.1279C144.028 48.5171 141.301 51.2643 137.936 51.2643Z" fill="#1C004F"/>
<path d="M103.732 31.6131C103.794 42.4624 95.1136 51.3082 84.3428 51.3708C73.5721 51.4334 64.7904 42.6887 64.7288 31.8401C64.6667 20.9901 73.3474 12.145 84.1181 12.0824C94.8882 12.0197 103.67 20.7638 103.732 31.6131Z" fill="#B4D8F9"/>
<path d="M98.7449 31.3305C98.7922 39.5787 92.1931 46.3029 84.0053 46.3499C75.8168 46.3975 69.1413 39.7503 69.094 31.5027C69.0467 23.2545 75.6458 16.5303 83.8336 16.4827C92.0221 16.4357 98.6976 23.0823 98.7449 31.3305Z" fill="#71B7E2"/>
<path d="M99.1669 31.9518C99.2135 40.0884 92.7032 46.7233 84.6248 46.7696C76.5464 46.8166 69.9609 40.2587 69.9143 32.1214C69.8677 23.9841 76.378 17.35 84.4564 17.303C92.5341 17.2567 99.1203 23.8152 99.1669 31.9518Z" fill="#FF725E"/>
<path d="M99.1669 31.9518C99.2135 40.0884 92.7032 46.7233 84.6248 46.7696C76.5464 46.8166 69.9609 40.2587 69.9143 32.1214C69.8677 23.9841 76.378 17.35 84.4564 17.303C92.5341 17.2567 99.1203 23.8152 99.1669 31.9518Z" fill="#8CC2F2"/>
<path d="M85.1161 30.755L85.0947 26.9855C85.1005 26.9855 85.107 26.9855 85.1128 26.9855C85.7631 27.0572 86.4373 27.2281 87.1051 27.4963C87.6627 27.7833 88.0403 28.0828 88.0403 28.0828L88.0889 27.966L88.6582 26.6058L88.789 26.2933L88.118 25.5913L87.7981 25.7387C86.9781 25.331 86.0442 25.0133 85.083 24.9663L85.0714 22.893L84.4276 22.377L84.4308 22.8969L83.5513 22.9021L83.5636 25.0126C80.6731 25.3095 79.3104 26.9796 79.3214 28.8846C79.3363 31.4804 81.5468 32.14 83.607 32.6319L83.6284 36.3669C82.2184 36.2442 80.8246 35.7106 79.9121 34.9688L79.0889 36.8601C80.0578 37.6951 81.8227 38.2823 83.64 38.3841L83.6491 39.9492L82.9257 39.9661L83.6523 40.4567L85.1724 40.4476L85.1601 38.356C88.0688 38.0403 89.4503 36.389 89.4392 34.4841C89.4237 31.8875 87.1769 31.2469 85.1161 30.755ZM83.5934 30.3714C82.5163 30.0602 81.7165 29.6537 81.7113 28.7574C81.7067 27.936 82.2592 27.2601 83.574 27.0474L83.5934 30.3714ZM85.1478 36.3199L85.129 33.0142C86.243 33.3254 87.061 33.7501 87.0668 34.6648C87.0714 35.4685 86.5001 36.1066 85.1478 36.3199Z" fill="#71B7E2"/>
<path d="M84.5279 37.8484L84.5402 39.9407L83.0195 39.9491L83.0079 37.8758C81.1899 37.7741 79.425 37.1869 78.4561 36.3519L79.2799 34.4612C80.1931 35.203 81.5862 35.736 82.9969 35.8586L82.9755 32.123C80.9146 31.6311 78.7041 30.9709 78.6892 28.375C78.6782 26.4694 80.0409 24.7993 82.9321 24.5024L82.9198 22.3919L84.4405 22.3828L84.4522 24.4561C85.8252 24.5227 87.2177 24.9258 88.2235 25.5737L87.4735 27.4643C86.4878 26.8908 85.447 26.5797 84.4638 26.4733L84.4852 30.2461C86.5467 30.7387 88.7941 31.3793 88.809 33.9752C88.8187 35.8808 87.4373 37.5327 84.5279 37.8484ZM82.9612 29.8632L82.9425 26.5386C81.627 26.7519 81.0746 27.4271 81.0798 28.2491C81.0843 29.1455 81.8842 29.552 82.9612 29.8632ZM86.4353 34.1579C86.4301 33.2425 85.6115 32.8178 84.4975 32.5066L84.5163 35.813C85.8686 35.5996 86.4399 34.961 86.4353 34.1579Z" fill="white"/>
<path d="M137.082 13.3937C137.121 20.2673 131.621 25.8713 124.798 25.9111C117.974 25.9509 112.411 20.4108 112.371 13.5372C112.332 6.66359 117.831 1.05953 124.656 1.01974C131.479 0.980594 137.042 6.52006 137.082 13.3937Z" fill="#B4D8F9"/>
<path d="M133.923 13.2156C133.953 18.4413 129.772 22.7014 124.585 22.7314C119.397 22.7614 115.168 18.5502 115.138 13.3246C115.108 8.09889 119.289 3.83876 124.477 3.80875C129.663 3.77874 133.892 7.98994 133.923 13.2156Z" fill="#71B7E2"/>
<path d="M134.189 13.6086C134.219 18.7638 130.094 22.9671 124.976 22.9965C119.858 23.0265 115.686 18.8714 115.656 13.7162C115.627 8.561 119.752 4.35829 124.869 4.32828C129.988 4.29892 134.16 8.45336 134.189 13.6086Z" fill="#FF725E"/>
<path d="M134.189 13.6086C134.219 18.7638 130.094 22.9671 124.976 22.9965C119.858 23.0265 115.686 18.8714 115.656 13.7162C115.627 8.561 119.752 4.35829 124.869 4.32828C129.988 4.29892 134.16 8.45336 134.189 13.6086Z" fill="#8CC2F2"/>
<path d="M125.288 12.8502L125.274 10.4624C125.278 10.4624 125.282 10.4624 125.286 10.4624C125.698 10.5081 126.125 10.6164 126.548 10.786C126.902 10.968 127.141 11.1579 127.141 11.1579L127.172 11.0842L127.533 10.2223L127.616 10.024L127.191 9.57909L126.988 9.67238C126.469 9.41403 125.877 9.21244 125.268 9.18308L125.261 7.86982L124.853 7.54297L124.855 7.87243L124.298 7.87569L124.306 9.21245C122.474 9.40034 121.611 10.4585 121.618 11.6654C121.627 13.3101 123.027 13.7277 124.333 14.0402L124.346 16.4064C123.453 16.3287 122.57 15.9908 121.992 15.5211L121.471 16.7189C122.085 17.248 123.203 17.6198 124.354 17.6844L124.36 18.6761L123.901 18.6865L124.362 18.9977L125.325 18.9925L125.317 17.6675C127.16 17.4678 128.035 16.4214 128.028 15.2145C128.017 13.5678 126.594 13.162 125.288 12.8502ZM124.324 12.6075C123.641 12.4105 123.135 12.1528 123.131 11.5852C123.128 11.0646 123.478 10.6366 124.311 10.5016L124.324 12.6075ZM125.308 16.3764L125.296 14.2822C126.002 14.4792 126.521 14.7487 126.524 15.328C126.526 15.8368 126.165 16.2413 125.308 16.3764Z" fill="#71B7E2"/>
<path d="M124.915 17.3439L124.922 18.6695L123.959 18.6747L123.951 17.3615C122.8 17.2969 121.681 16.925 121.067 16.3959L121.589 15.1981C122.168 15.6679 123.051 16.0058 123.944 16.0834L123.931 13.7166C122.625 13.4047 121.225 12.9865 121.215 11.3418C121.208 10.1349 122.071 9.07609 123.903 8.8882L123.895 7.55079L124.858 7.54492L124.865 8.85819C125.735 8.90059 126.617 9.15568 127.255 9.56603L126.78 10.7638C126.155 10.4004 125.496 10.2034 124.873 10.1356L124.887 12.5259C126.192 12.8378 127.617 13.2436 127.626 14.8889C127.633 16.0971 126.758 17.1436 124.915 17.3439ZM123.922 12.2846L123.91 10.178C123.077 10.313 122.727 10.741 122.73 11.2616C122.733 11.8298 123.24 12.0875 123.922 12.2846ZM126.123 15.0057C126.12 14.4257 125.601 14.1569 124.895 13.9599L124.907 16.0547C125.764 15.919 126.126 15.5146 126.123 15.0057Z" fill="white"/>
<path d="M216.081 134.554H245.821C247.273 134.554 248.45 133.369 248.45 131.906V100.961C248.45 99.4986 247.273 98.3125 245.821 98.3125H216.081C214.629 98.3125 213.452 99.4979 213.452 100.961V131.906C213.452 133.369 214.629 134.554 216.081 134.554Z" fill="#9FCCFB"/>
<path d="M245.82 98.3145H216.08C214.628 98.3145 213.451 99.4998 213.451 100.963V108.75H248.449V100.963C248.449 99.4998 247.272 98.3145 245.82 98.3145Z" fill="#4F8CCA"/>
<path d="M238.813 117.794H243.49C243.771 117.794 243.999 117.564 243.999 117.28V112.57C243.999 112.286 243.771 112.057 243.49 112.057H238.813C238.532 112.057 238.304 112.287 238.304 112.57V117.28C238.303 117.564 238.532 117.794 238.813 117.794Z" fill="#E4F1FF"/>
<path d="M232.134 117.794H236.81C237.092 117.794 237.32 117.564 237.32 117.28V112.57C237.32 112.286 237.091 112.057 236.81 112.057H232.134C231.852 112.057 231.624 112.287 231.624 112.57V117.28C231.624 117.564 231.852 117.794 232.134 117.794Z" fill="white"/>
<path d="M222.624 101.026C221.981 101.026 221.458 100.5 221.458 99.8509V95.6906C221.458 95.0415 221.981 94.5156 222.624 94.5156C223.268 94.5156 223.791 95.0415 223.791 95.6906V99.8509C223.791 100.5 223.269 101.026 222.624 101.026Z" fill="#8EC3F4"/>
<path d="M228.53 101.032C227.886 101.032 227.363 100.506 227.363 99.8568V95.6965C227.363 95.0473 227.886 94.5215 228.53 94.5215C229.174 94.5215 229.696 95.0473 229.696 95.6965V99.8568C229.696 100.506 229.174 101.032 228.53 101.032Z" fill="#8EC3F4"/>
<path d="M234.16 101.028C233.516 101.028 232.993 100.502 232.993 99.8528V95.6925C232.993 95.0434 233.516 94.5176 234.16 94.5176C234.803 94.5176 235.326 95.0434 235.326 95.6925V99.8528C235.326 100.502 234.804 101.028 234.16 101.028Z" fill="#8EC3F4"/>
<path d="M225.407 117.794H230.083C230.365 117.794 230.593 117.564 230.593 117.28V112.57C230.593 112.286 230.365 112.057 230.083 112.057H225.407C225.125 112.057 224.897 112.287 224.897 112.57V117.28C224.897 117.564 225.125 117.794 225.407 117.794Z" fill="#E4F1FF"/>
<path d="M218.727 117.794H223.404C223.685 117.794 223.913 117.564 223.913 117.28V112.57C223.913 112.286 223.685 112.057 223.404 112.057H218.727C218.446 112.057 218.218 112.287 218.218 112.57V117.28C218.218 117.564 218.446 117.794 218.727 117.794Z" fill="#E4F1FF"/>
<path d="M238.766 124.182H243.442C243.723 124.182 243.951 123.952 243.951 123.669V118.959C243.951 118.675 243.723 118.445 243.442 118.445H238.766C238.484 118.445 238.256 118.676 238.256 118.959V123.669C238.256 123.952 238.484 124.182 238.766 124.182Z" fill="#E4F1FF"/>
<path d="M232.086 124.182H236.762C237.044 124.182 237.272 123.952 237.272 123.669V118.959C237.272 118.675 237.043 118.445 236.762 118.445H232.086C231.804 118.445 231.576 118.676 231.576 118.959V123.669C231.576 123.952 231.805 124.182 232.086 124.182Z" fill="white"/>
<path d="M225.359 124.182H230.036C230.317 124.182 230.545 123.952 230.545 123.669V118.959C230.545 118.675 230.317 118.445 230.036 118.445H225.359C225.078 118.445 224.85 118.676 224.85 118.959V123.669C224.849 123.952 225.078 124.182 225.359 124.182Z" fill="#E4F1FF"/>
<path d="M218.68 124.182H223.356C223.638 124.182 223.866 123.952 223.866 123.669V118.959C223.866 118.675 223.637 118.445 223.356 118.445H218.68C218.398 118.445 218.17 118.676 218.17 118.959V123.669C218.17 123.952 218.398 124.182 218.68 124.182Z" fill="#E4F1FF"/>
<path d="M238.718 130.622H243.394C243.676 130.622 243.904 130.392 243.904 130.108V125.398C243.904 125.114 243.675 124.885 243.394 124.885H238.718C238.436 124.885 238.208 125.115 238.208 125.398V130.108C238.208 130.392 238.436 130.622 238.718 130.622Z" fill="#E4F1FF"/>
<path d="M232.038 130.622H236.714C236.996 130.622 237.224 130.392 237.224 130.108V125.398C237.224 125.114 236.995 124.885 236.714 124.885H232.038C231.756 124.885 231.528 125.115 231.528 125.398V130.108C231.528 130.392 231.757 130.622 232.038 130.622Z" fill="white"/>
<path d="M225.312 130.622H229.989C230.27 130.622 230.498 130.392 230.498 130.108V125.398C230.498 125.114 230.27 124.885 229.989 124.885H225.312C225.031 124.885 224.803 125.115 224.803 125.398V130.108C224.802 130.392 225.031 130.622 225.312 130.622Z" fill="#E4F1FF"/>
<path d="M218.632 130.622H223.308C223.59 130.622 223.818 130.392 223.818 130.108V125.398C223.818 125.114 223.589 124.885 223.308 124.885H218.632C218.35 124.885 218.122 125.115 218.122 125.398V130.108C218.122 130.392 218.35 130.622 218.632 130.622Z" fill="#E4F1FF"/>
<path d="M239.803 101.028C239.159 101.028 238.637 100.502 238.637 99.8528V95.6925C238.637 95.0434 239.159 94.5176 239.803 94.5176C240.447 94.5176 240.97 95.0434 240.97 95.6925V99.8528C240.97 100.502 240.447 101.028 239.803 101.028Z" fill="#8EC3F4"/>
<path opacity="0.35" d="M190.259 72.7383H104.94C102.168 72.7383 99.9209 75.0021 99.9209 77.7943V78.5837V122.518C99.9209 125.311 102.168 127.574 104.94 127.574H190.258C193.03 127.574 195.278 125.311 195.278 122.518V114.587V77.7943C195.278 75.0021 193.03 72.7383 190.259 72.7383Z" fill="#9FCCFB"/>
<path d="M188.049 125.817H102.731C99.9593 125.817 97.7119 123.553 97.7119 120.761V76.0365C97.7119 73.2443 99.9593 70.9805 102.731 70.9805H188.049C190.821 70.9805 193.069 73.2443 193.069 76.0365V120.761C193.069 123.554 190.821 125.817 188.049 125.817Z" fill="#9FCCFB"/>
<path d="M193.069 76.0365C193.069 73.2443 190.821 70.9805 188.049 70.9805H102.731C99.9593 70.9805 97.7119 73.2443 97.7119 76.0365V76.8259C108.154 77.3035 128.393 80.7514 142.51 99.0073C158.759 120.019 180.595 117.965 193.068 112.829V76.0365H193.069Z" fill="#8EC3F4"/>
<path d="M119.373 101.555H107.463C106.408 101.555 105.553 100.693 105.553 99.6303V93.3484C105.553 92.2856 106.408 91.4238 107.463 91.4238H119.373C120.428 91.4238 121.284 92.2856 121.284 93.3484V99.6303C121.284 100.693 120.429 101.555 119.373 101.555Z" fill="white"/>
<path d="M186.512 80.7732H169.267C168.83 80.7732 168.477 80.417 168.477 79.9773V76.6338C168.477 76.1941 168.83 75.8379 169.267 75.8379H186.512C186.949 75.8379 187.302 76.1941 187.302 76.6338V79.9773C187.302 80.4164 186.949 80.7732 186.512 80.7732Z" fill="#1C004F"/>
<path d="M121.412 110.115H106.654C105.731 110.115 104.983 109.362 104.983 108.433C104.983 107.504 105.731 106.75 106.654 106.75H121.412C122.334 106.75 123.082 107.503 123.082 108.433C123.082 109.362 122.334 110.115 121.412 110.115Z" fill="white"/>
<path d="M142.306 110.115H127.548C126.626 110.115 125.878 109.362 125.878 108.433C125.878 107.504 126.626 106.75 127.548 106.75H142.306C143.228 106.75 143.976 107.503 143.976 108.433C143.976 109.362 143.228 110.115 142.306 110.115Z" fill="white"/>
<path d="M163.356 110.115H148.598C147.676 110.115 146.928 109.362 146.928 108.433C146.928 107.504 147.676 106.75 148.598 106.75H163.356C164.278 106.75 165.026 107.503 165.026 108.433C165.026 109.362 164.278 110.115 163.356 110.115Z" fill="white"/>
<path d="M184.248 110.115H169.491C168.568 110.115 167.82 109.362 167.82 108.433C167.82 107.504 168.568 106.75 169.491 106.75H184.248C185.171 106.75 185.919 107.503 185.919 108.433C185.919 109.362 185.171 110.115 184.248 110.115Z" fill="white"/>
<path d="M126.073 121.461H106.876C106.315 121.461 105.861 121.003 105.861 120.439C105.861 119.874 106.316 119.416 106.876 119.416H126.073C126.634 119.416 127.089 119.874 127.089 120.439C127.089 121.003 126.634 121.461 126.073 121.461Z" fill="#1C004F"/>
<path d="M184.197 121.461H174.725C174.164 121.461 173.71 121.003 173.71 120.439C173.71 119.874 174.165 119.416 174.725 119.416H184.197C184.758 119.416 185.212 119.874 185.212 120.439C185.212 121.003 184.758 121.461 184.197 121.461Z" fill="#1C004F"/>
<mask id="mask0_2323_2584" style="mask-type:luminance" maskUnits="userSpaceOnUse" x="105" y="91" width="17" height="11">
<path d="M119.373 101.555H107.463C106.408 101.555 105.553 100.693 105.553 99.6303V93.3484C105.553 92.2856 106.408 91.4238 107.463 91.4238H119.373C120.428 91.4238 121.284 92.2856 121.284 93.3484V99.6303C121.284 100.693 120.429 101.555 119.373 101.555Z" fill="white"/>
</mask>
<g mask="url(#mask0_2323_2584)">
<path d="M108.423 91.25C109.817 93.0539 112.025 97.1476 108.236 101.821" stroke="#8EC3F4" stroke-width="0.5" stroke-miterlimit="10" stroke-linecap="round"/>
</g>
<mask id="mask1_2323_2584" style="mask-type:luminance" maskUnits="userSpaceOnUse" x="105" y="91" width="17" height="11">
<path d="M119.373 101.555H107.463C106.408 101.555 105.553 100.693 105.553 99.6303V93.3484C105.553 92.2856 106.408 91.4238 107.463 91.4238H119.373C120.428 91.4238 121.284 92.2856 121.284 93.3484V99.6303C121.284 100.693 120.429 101.555 119.373 101.555Z" fill="white"/>
</mask>
<g mask="url(#mask1_2323_2584)">
<path d="M104.539 96.3965H110.31" stroke="#8EC3F4" stroke-width="0.5" stroke-miterlimit="10"/>
</g>
<mask id="mask2_2323_2584" style="mask-type:luminance" maskUnits="userSpaceOnUse" x="105" y="91" width="17" height="11">
<path d="M119.373 101.555H107.463C106.408 101.555 105.553 100.693 105.553 99.6303V93.3484C105.553 92.2856 106.408 91.4238 107.463 91.4238H119.373C120.428 91.4238 121.284 92.2856 121.284 93.3484V99.6303C121.284 100.693 120.429 101.555 119.373 101.555Z" fill="white"/>
</mask>
<g mask="url(#mask2_2323_2584)">
<path d="M117.979 91.25C116.586 93.0539 114.377 97.1476 118.166 101.821" stroke="#8EC3F4" stroke-width="0.5" stroke-miterlimit="10" stroke-linecap="round"/>
</g>
<mask id="mask3_2323_2584" style="mask-type:luminance" maskUnits="userSpaceOnUse" x="105" y="91" width="17" height="11">
<path d="M119.373 101.555H107.463C106.408 101.555 105.553 100.693 105.553 99.6303V93.3484C105.553 92.2856 106.408 91.4238 107.463 91.4238H119.373C120.428 91.4238 121.284 92.2856 121.284 93.3484V99.6303C121.284 100.693 120.429 101.555 119.373 101.555Z" fill="white"/>
</mask>
<g mask="url(#mask3_2323_2584)">
<path d="M121.863 96.3965H116.091" stroke="#8EC3F4" stroke-width="0.5" stroke-miterlimit="10"/>
</g>
<path d="M195.391 184.099C195.391 184.099 195.501 169.746 204.31 168.718C213.118 167.691 216.153 170.326 217.36 170.813C218.565 171.3 215.389 171.954 212.702 174.601C210.016 177.249 210.043 180.551 203.985 181.631C197.926 182.711 195.672 187.206 195.672 187.206L195.391 184.099Z" fill="#4F8CCA"/>
<path d="M195.671 187.206C195.671 187.206 198.495 172.482 212.15 171.883" stroke="#1A2E9D" stroke-width="0.5" stroke-miterlimit="10" stroke-linecap="round"/>
<path d="M196.113 178.998C196.113 178.998 197.432 166.623 189.945 164.858C182.458 163.092 179.584 165.059 178.497 165.358C177.41 165.657 180.082 166.538 182.136 169.087C184.189 171.637 183.84 174.478 188.953 176.014C194.065 177.549 195.565 181.647 195.565 181.647L196.113 178.998Z" fill="#4F8CCA"/>
<path d="M195.565 181.647C195.565 181.647 194.582 168.681 182.879 166.801" stroke="#1A2E9D" stroke-width="0.5" stroke-miterlimit="10" stroke-linecap="round"/>
<path d="M196.929 150.721C196.932 150.72 196.943 150.768 196.961 150.863C196.98 150.968 197.006 151.108 197.037 151.284C197.07 151.474 197.108 151.703 197.154 151.972C197.187 152.247 197.226 152.563 197.268 152.917C197.423 154.339 197.539 156.417 197.395 158.975C197.274 161.534 196.895 164.561 196.472 167.914C196.043 171.266 195.676 174.966 195.616 178.864C195.444 186.669 196.389 193.709 197.403 198.709C197.895 201.217 198.429 203.216 198.781 204.601C198.97 205.28 199.118 205.812 199.222 206.186C199.268 206.36 199.304 206.497 199.331 206.599C199.355 206.693 199.366 206.742 199.362 206.742C199.362 206.742 198.313 203.75 197.265 198.738C196.213 193.737 195.243 186.683 195.415 178.86C195.476 174.954 195.849 171.242 196.289 167.89C196.722 164.537 197.115 161.518 197.253 158.967C197.415 156.417 197.32 154.346 197.19 152.925C197.154 152.572 197.122 152.256 197.094 151.98C197.056 151.711 197.024 151.481 196.996 151.292C196.973 151.113 196.954 150.973 196.94 150.867C196.93 150.771 196.926 150.721 196.929 150.721Z" fill="#1C004F"/>
<path d="M205.251 193.682H188.371C187.967 193.682 187.641 193.352 187.641 192.947V190.901C187.641 190.495 187.968 190.166 188.371 190.166H205.251C205.654 190.166 205.981 190.495 205.981 190.901V192.947C205.981 193.352 205.654 193.682 205.251 193.682Z" fill="#21212A"/>
<path d="M201.471 208.54H192.774C192.072 208.54 191.471 208.031 191.352 207.333L188.915 193.115H204.708L202.902 207.272C202.81 207.996 202.197 208.54 201.471 208.54Z" fill="#21212A"/>
<path d="M196.725 163.906C196.725 163.906 197.922 154.507 203.776 154.533C209.63 154.56 211.413 156.529 212.166 156.944C212.918 157.359 210.785 157.535 208.816 159.057C206.847 160.579 206.607 162.746 202.551 162.971C198.495 163.198 196.665 165.965 196.665 165.965L196.725 163.906Z" fill="#4F8CCA"/>
<path d="M196.665 165.966C196.665 165.966 199.67 156.539 208.668 157.232" stroke="#1A2E9D" stroke-width="0.5" stroke-miterlimit="10" stroke-linecap="round"/>
<path d="M197.885 156.803C197.885 156.803 200.058 147.582 194.571 145.527C189.084 143.471 186.726 144.679 185.877 144.8C185.027 144.921 186.962 145.844 188.27 147.968C189.579 150.092 189.046 152.205 192.761 153.858C196.477 155.511 197.22 158.751 197.22 158.751L197.885 156.803Z" fill="#4F8CCA"/>
<path d="M197.219 158.751C197.219 158.751 197.71 148.862 189.049 146.312" stroke="#1A2E9D" stroke-width="0.5" stroke-miterlimit="10" stroke-linecap="round"/>
<path d="M56.8242 54.9479C56.8242 53.7403 55.8527 52.7617 54.6539 52.7617H22.6235C21.4246 52.7617 20.4531 53.7403 20.4531 54.9479V72.3824C20.4531 73.59 21.4246 74.5686 22.6235 74.5686H49.0218L51.5062 77.9793C52.2802 79.0421 53.6189 78.9436 54.2316 77.779L56.3793 73.6951C56.6546 73.3284 56.8242 72.877 56.8242 72.3818V54.9479Z" fill="#4F8CCA"/>
<path d="M50.744 60.5739H26.2311C25.8483 60.5739 25.5381 60.2614 25.5381 59.8758C25.5381 59.4902 25.8483 59.1777 26.2311 59.1777H50.744C51.1268 59.1777 51.4371 59.4902 51.4371 59.8758C51.4371 60.2607 51.1268 60.5739 50.744 60.5739Z" fill="white"/>
<path d="M43.2939 63.8434H26.2311C25.8483 63.8434 25.5381 63.5309 25.5381 63.1453C25.5381 62.7598 25.8483 62.4473 26.2311 62.4473H43.2939C43.6767 62.4473 43.9869 62.7598 43.9869 63.1453C43.9869 63.5309 43.6767 63.8434 43.2939 63.8434Z" fill="white"/>
<path d="M47.4332 67.1832H26.2311C25.8483 67.1832 25.5381 66.8707 25.5381 66.4852C25.5381 66.0996 25.8483 65.7871 26.2311 65.7871H47.4332C47.8159 65.7871 48.1262 66.0996 48.1262 66.4852C48.1268 66.8707 47.8159 67.1832 47.4332 67.1832Z" fill="white"/>
<g opacity="0.35">
<path d="M146.136 167.562C146.197 178.218 137.67 186.906 127.091 186.968C116.511 187.03 107.886 178.441 107.826 167.784C107.765 157.127 116.291 148.439 126.87 148.377C137.449 148.317 146.075 156.905 146.136 167.562Z" fill="#9FCCFB"/>
</g>
<path d="M144.686 167.388C145.277 156.64 137.106 147.444 126.436 146.849C115.765 146.254 106.637 154.484 106.046 165.232C105.455 175.98 113.625 185.176 124.296 185.771C134.966 186.366 144.095 178.136 144.686 167.388Z" fill="#B4D8F9"/>
<path d="M139.762 165.925C139.809 174.108 133.262 180.78 125.138 180.827C117.014 180.874 110.391 174.279 110.344 166.096C110.297 157.912 116.844 151.241 124.968 151.194C133.093 151.146 139.716 157.741 139.762 165.925Z" fill="#71B7E2"/>
<path d="M140.181 166.539C140.227 174.613 133.768 181.195 125.753 181.241C117.738 181.287 111.203 174.781 111.157 166.708C111.111 158.634 117.571 152.052 125.586 152.006C133.6 151.96 140.134 158.466 140.181 166.539Z" fill="#FF725E"/>
<path d="M140.181 166.539C140.227 174.613 133.768 181.195 125.753 181.241C117.738 181.287 111.203 174.781 111.157 166.708C111.111 158.634 117.571 152.052 125.586 152.006C133.6 151.96 140.134 158.466 140.181 166.539Z" fill="#8CC2F2"/>
<path d="M126.24 165.353L126.218 161.614C126.224 161.613 126.23 161.614 126.236 161.614C126.882 161.685 127.551 161.854 128.212 162.121C128.766 162.405 129.14 162.702 129.14 162.702L129.189 162.586L129.753 161.237L129.883 160.927L129.218 160.231L128.9 160.377C128.086 159.972 127.16 159.656 126.207 159.61L126.195 157.553L125.556 157.041L125.56 157.557L124.687 157.562L124.7 159.656C121.832 159.95 120.48 161.607 120.49 163.497C120.505 166.073 122.698 166.727 124.742 167.215L124.764 170.921C123.365 170.799 121.982 170.27 121.076 169.534L120.26 171.41C121.221 172.239 122.972 172.821 124.775 172.922L124.784 174.474L124.066 174.491L124.787 174.978L126.295 174.969L126.284 172.894C129.17 172.581 130.54 170.942 130.529 169.052C130.514 166.477 128.284 165.841 126.24 165.353ZM124.729 164.973C123.661 164.664 122.867 164.261 122.862 163.372C122.858 162.557 123.405 161.886 124.711 161.675L124.729 164.973ZM126.219 161.61C126.218 161.61 126.218 161.61 126.219 161.61V161.61ZM126.271 170.875L126.253 167.595C127.358 167.904 128.17 168.325 128.175 169.233C128.18 170.029 127.613 170.663 126.271 170.875Z" fill="#71B7E2"/>
<path d="M125.656 172.391L125.668 174.467L124.16 174.476L124.148 172.419C122.344 172.317 120.593 171.735 119.632 170.906L120.449 169.03C121.355 169.766 122.737 170.295 124.137 170.417L124.116 166.711C122.071 166.222 119.878 165.568 119.863 162.992C119.852 161.102 121.204 159.444 124.072 159.15L124.06 157.056L125.568 157.047L125.58 159.104C126.942 159.17 128.324 159.57 129.322 160.213L128.578 162.089C127.6 161.52 126.568 161.211 125.592 161.105L125.613 164.849C127.658 165.337 129.888 165.973 129.903 168.549C129.914 170.439 128.543 172.078 125.656 172.391ZM124.103 164.469L124.084 161.17C122.779 161.381 122.231 162.052 122.235 162.868C122.241 163.757 123.034 164.16 124.103 164.469ZM127.549 168.729C127.544 167.821 126.732 167.4 125.626 167.091L125.645 170.371C126.987 170.16 127.554 169.527 127.549 168.729Z" fill="white"/>
<path d="M140.021 160.264C144.374 160.264 147.903 156.709 147.903 152.324C147.903 147.939 144.374 144.385 140.021 144.385C135.668 144.385 132.139 147.939 132.139 152.324C132.139 156.709 135.668 160.264 140.021 160.264Z" fill="#E4F1FF"/>
<path d="M137.357 152.156L138.415 154.546C138.522 154.788 138.841 154.841 139.019 154.646L142.971 150.318" stroke="#4F8CCA" stroke-width="1.5236" stroke-miterlimit="10" stroke-linecap="round"/>
<path d="M139.999 158.883C143.607 158.883 146.532 155.937 146.532 152.302C146.532 148.667 143.607 145.721 139.999 145.721C136.39 145.721 133.465 148.667 133.465 152.302C133.465 155.937 136.39 158.883 139.999 158.883Z" stroke="white" stroke-width="0.5" stroke-miterlimit="10"/>
<path d="M35.8662 91.374C35.8662 91.374 38.2555 84.7118 48.3299 87.5947C55.0456 89.516 58.9491 94.8845 58.5048 102.77C58.0359 111.1 63.2632 108.543 60.2198 120.581C58.1622 128.72 67.9381 135.426 59.045 148.21C51.8442 158.561 11.1201 152.598 11.5294 134.739C11.7224 126.304 18.7147 130.248 19.1363 116.645C19.315 110.871 30.2347 112.797 28.7658 104.04C28.034 99.6783 31.5009 90.8201 35.8662 91.374Z" fill="#DE001D"/>
<path d="M48.1992 117.293C48.1992 117.293 50.9686 119.005 50.2808 122.741C49.593 126.477 49.2879 130.002 52.4563 132.729" stroke="#B70825" stroke-width="0.5" stroke-miterlimit="10" stroke-linecap="round"/>
<path d="M55.6071 108.604C56.2878 111.607 57.5754 113.615 55.7976 117.691C52.0443 126.298 59.5437 128.091 55.9439 135.973C54.6531 138.798 54.1324 141.238 53.8662 143.366" stroke="#B70825" stroke-width="0.5" stroke-miterlimit="10" stroke-linecap="round"/>
<path d="M57.207 151.176L70.0691 151.178L66.1261 146.842L57.6876 148.127L57.207 151.176Z" fill="#F7C2A0"/>
<path d="M33.8343 113.438C33.8343 113.438 30.1497 115.496 30.6439 119.403C31.3103 124.672 26.105 125.495 27.4004 128.792" stroke="#B70825" stroke-width="0.5" stroke-miterlimit="10" stroke-linecap="round"/>
<path d="M32.179 99.3496C32.179 99.3496 30.688 102.629 31.0786 105.936C31.8784 112.715 22.7424 112.859 22.6738 119.7C22.631 123.976 19.0889 126.588 16.7891 129.069" stroke="#B70825" stroke-width="0.5" stroke-miterlimit="10" stroke-linecap="round"/>
<path d="M94.979 228.904L94.9531 236.807L87.7128 236.865L86.5664 230.423L94.979 228.904Z" fill="#E8977B"/>
<path d="M73.3415 231.381L72.6329 240.003L64.8071 240.717L63.5273 234.233L73.3415 231.381Z" fill="#E8977B"/>
<path d="M41.0396 173.033C49.3596 177.532 66.6821 186.446 76.5085 188.243C77.3155 188.39 77.9444 189.026 78.0636 189.844L84.0506 230.913C84.1575 231.648 84.675 232.253 85.3823 232.464C87.6569 233.141 92.8117 234.008 96.8019 229.713C97.1666 229.321 97.3602 228.797 97.3233 228.261C96.9088 222.202 94.1666 183.048 92.1918 177.913C90.1821 172.684 62.1096 167.187 58.6892 166.535C58.4639 166.492 58.2339 166.491 58.0079 166.532L41.6005 169.477C39.8337 169.794 39.458 172.177 41.0396 173.033Z" fill="#4F8CCA"/>
<path d="M28.9912 175.674C29.0301 175.684 22.2639 188.524 56.1525 191.541C56.8999 191.607 57.4556 192.271 57.532 193.023L61.7438 234.455C61.8105 235.111 62.2496 235.663 62.8701 235.874C64.9906 236.594 70.0463 237.669 74.5916 233.723C74.9925 233.374 75.2302 232.875 75.216 232.342C75.0508 226.291 73.9161 187.032 72.1538 181.817C70.4582 176.8 45.5009 170.573 39.9135 169.237C39.2457 169.077 38.5547 169.347 38.1641 169.915L28.9912 175.674Z" fill="#4F8CCA"/>
<path d="M27.4221 123.071C38.0004 119.901 50.8191 122.653 52.9195 123.287C55.3165 124.011 58.3126 126.909 61.5484 133.428C64.7841 139.947 64.7841 139.947 64.7841 139.947L58.3126 141.879V166.748C52.5347 171.691 45.584 175.043 38.1377 176.476L29.3949 178.052C28.5471 178.204 27.7757 177.531 27.8048 176.664L28.8061 145.02L17.8236 145.603C17.8236 145.603 17.3139 126.101 27.4221 123.071Z" fill="#FFFEFC"/>
<path d="M49.2978 146.05L29.5789 151.513L28.8056 145.02L19.6398 145.436C19.6398 145.436 17.5744 161.478 23.0245 161.821C31.2784 162.341 52.5485 151.816 52.5485 151.816L49.2978 146.05Z" fill="#F7C2A0"/>
<path d="M46.1326 96.0324C47.2376 95.5835 48.8412 95.9423 49.656 96.7924C51.893 99.1267 54.6819 103.205 53.7363 108.414C52.643 114.437 51.2253 118.186 47.9293 118.124C46.8593 118.104 46.393 118.959 46.3587 119.97L46.1553 123.118C45.1812 128.625 37.1838 129.422 34.8962 124.239L34.5212 123.39C34.2466 122.768 34.257 122.06 34.5478 121.445C35.5115 119.41 37.858 115.947 35.2298 108.264C35.0497 107.738 34.2479 105.941 34.7589 104.677C35.1948 103.598 36.5873 103.438 37.4727 104.188C37.6676 104.353 37.9319 104.383 38.4267 104.036C40.1404 102.836 40.2913 98.4058 46.1326 96.0324Z" fill="#F7C2A0"/>
<path d="M46.8439 95.8753C46.8439 95.8753 46.9366 97.9062 50.2934 99.6494C54.399 101.781 51.8731 104.334 53.772 107.351C55.772 110.529 54.035 104.475 54.035 104.475L53.4527 97.5683C52.2934 93.087 50.592 90.1571 46.3239 91.0541C44.0344 91.5356 41.8206 92.4039 40.6321 93.9521C37.502 98.0308 36.8174 107.323 36.8174 107.323C36.8174 107.323 40.2578 107.391 42.0667 103.037C44.1134 98.1143 43.8731 97.3223 46.8439 95.8753Z" fill="#DE001D"/>
<path d="M66.3541 151.625H58.503C57.8586 151.625 57.3359 151.099 57.3359 150.449V133.293C57.3359 132.644 57.8586 132.117 58.503 132.117H66.3541C66.9985 132.117 67.5212 132.644 67.5212 133.293V150.449C67.5212 151.099 66.9985 151.625 66.3541 151.625Z" fill="#1C004F"/>
<path d="M73.1227 145.182C70.9919 142.186 68.0165 136.556 67.0042 136.441C66.4608 136.379 66.284 136.86 66.5243 137.997C67.2393 141.377 68.3948 142.037 65.2542 141.494C64.8009 141.416 62.4971 140.964 61.2354 140.715C60.308 140.533 59.4951 141.463 59.8714 142.336C59.9738 142.574 60.1415 142.833 60.3973 143.113C60.3973 143.113 59.6551 145.217 61.6415 145.739C61.6415 145.739 61.8747 148.13 63.3682 148.237C63.3682 148.237 64.9582 149.233 68.3054 150.627C69.8281 151.652 71.8734 151.35 73.0405 149.928L73.2957 149.617C74.3682 148.31 74.2937 146.4 73.1227 145.182Z" fill="#F7C2A0"/>
<path d="M60.7451 143.137C61.8455 143.484 63.534 144.006 64.5858 143.955" stroke="#F18884" stroke-width="0.5" stroke-miterlimit="10" stroke-linecap="round"/>
<path d="M61.9072 145.783C61.9072 145.783 63.8509 146.533 65.2362 146.428" stroke="#F18884" stroke-width="0.5" stroke-miterlimit="10" stroke-linecap="round"/>
<path d="M49.2979 146.051L51.6916 144.304C53.419 140.839 56.6016 134.563 57.1793 134.866C57.8153 135.199 57.9844 135.901 57.5543 137.277C56.5239 140.573 57.0317 142.189 58.8879 142.047C59.5265 141.999 65.0129 141.965 65.0129 141.965C65.0129 141.965 66.3264 143.149 64.5802 144.489C64.5802 144.489 64.9494 146.691 62.9028 146.858C62.9028 146.858 62.2616 149.172 60.7719 149.016C60.7719 149.016 59.0342 149.72 55.498 150.508L52.5472 151.817L49.2979 146.051Z" fill="#F7C2A0"/>
<path d="M64.2335 144.451C63.0903 144.601 61.3371 144.82 60.3105 144.587" stroke="#F18884" stroke-width="0.5" stroke-miterlimit="10" stroke-linecap="round"/>
<path d="M62.6334 146.855C62.6334 146.855 60.59 147.255 59.2441 146.91" stroke="#F18884" stroke-width="0.5" stroke-miterlimit="10" stroke-linecap="round"/>
<path d="M57.1794 134.865C57.8154 135.199 57.9844 135.9 57.5544 137.276C56.524 140.572 57.0317 142.188 58.8879 142.046C59.5265 141.998 65.0129 141.965 65.0129 141.965C65.0129 141.965 66.3264 143.148 64.5803 144.488C64.5803 144.488 64.9495 146.69 62.9028 146.858C62.9028 146.858 62.2617 149.171 60.772 149.016C60.772 149.016 59.0343 149.719 55.498 150.508" stroke="#F18884" stroke-width="0.5" stroke-miterlimit="10" stroke-linecap="round"/>
<path d="M63.3691 148.236C64.1476 148.622 67.0136 150.088 68.3063 150.627" stroke="#F18884" stroke-width="0.5" stroke-miterlimit="10" stroke-linecap="round"/>
<path d="M95.6716 235.443C95.6716 235.443 93.3555 237.333 86.8193 236.323C86.8193 236.323 86.3581 240.443 84.579 242.596C82.7992 244.75 87.9566 247.351 91.8251 246.144C95.6943 244.936 98.5835 247.811 102.407 247.343C106.232 246.875 111.747 242.684 109.702 241.434C107.657 240.184 100.389 240.232 98.5783 237.371C97.511 235.683 95.6716 235.443 95.6716 235.443Z" fill="#1C004F"/>
<path d="M100.547 245.741C104.051 246.79 107.966 242.693 107.966 242.693" stroke="white" stroke-width="0.5" stroke-miterlimit="10" stroke-linecap="round"/>
<path d="M86.1709 243.281C86.1709 243.281 87.5621 244.954 90.759 244.623C93.9565 244.292 97.0427 244.692 100.547 245.741" stroke="white" stroke-width="0.5" stroke-miterlimit="10" stroke-linecap="round"/>
<path d="M73.5191 238.43C73.5191 238.43 69.8766 241.039 63.407 239.662C63.407 239.662 63.4944 243.582 61.5981 245.631C59.7017 247.681 64.7062 250.57 68.6363 249.582C72.5663 248.593 75.2917 251.626 79.1356 251.374C82.9795 251.123 88.7192 247.249 86.747 245.886C84.7749 244.523 76.7989 243.61 75.1492 240.651C74.1764 238.907 73.5191 238.43 73.5191 238.43Z" fill="#1C004F"/>
<path d="M77.3682 249.672C80.8086 250.917 84.9446 247.047 84.9446 247.047" stroke="white" stroke-width="0.5" stroke-miterlimit="10" stroke-linecap="round"/>
<path d="M63.1504 246.406C63.1504 246.406 64.4464 248.155 67.6569 248.004C70.8674 247.853 73.9269 248.427 77.368 249.671" stroke="white" stroke-width="0.5" stroke-miterlimit="10" stroke-linecap="round"/>
<path d="M73.2329 189.601C72.9071 185.818 72.5464 182.978 72.1545 181.819C71.1817 178.941 62.5561 175.665 54.3223 173.143" stroke="white" stroke-width="0.5" stroke-miterlimit="10" stroke-linecap="round"/>
<path d="M73.0033 210.009C72.7533 204.079 72.4444 197.838 72.083 192.574" stroke="white" stroke-width="0.5" stroke-miterlimit="10" stroke-linecap="round"/>
<path d="M66.1719 235.056C68.3059 234.948 70.7703 234.244 73.1006 232.221C73.5015 231.873 73.7392 231.374 73.725 230.841C73.6719 228.889 73.5177 223.483 73.2742 216.879" stroke="white" stroke-width="0.5" stroke-miterlimit="10" stroke-linecap="round"/>
<path d="M63.7285 181.561C63.7285 181.561 63.9403 187.007 70.1961 188.929" stroke="white" stroke-width="0.5" stroke-miterlimit="10"/>
<path d="M85.1455 176.969C85.1455 176.969 86.4175 181.988 91.7187 184.765" stroke="white" stroke-width="0.5" stroke-miterlimit="10"/>
<path d="M86.5664 230.421C86.5664 230.421 91.5055 230.577 95.5347 227.48" stroke="white" stroke-width="0.5" stroke-miterlimit="10"/>
<path d="M33.292 124.088C33.292 124.088 34.4053 130.62 42.724 128.916" stroke="#315782" stroke-width="0.5" stroke-miterlimit="10" stroke-linecap="round"/>
<path d="M47.097 124.547C47.097 124.547 47.1695 126.367 44.7842 127.823" stroke="#315782" stroke-width="0.5" stroke-miterlimit="10" stroke-linecap="round"/>
<path d="M19.3418 144.046L26.2213 143.986" stroke="#315782" stroke-width="0.5" stroke-miterlimit="10" stroke-linecap="round"/>
<path d="M28.8662 144.886L29.589 140.25" stroke="#315782" stroke-width="0.5" stroke-miterlimit="10" stroke-linecap="round"/>
<path d="M39.3208 173.42C36.6906 174.136 33.7411 174.738 30.4697 175.131" stroke="#315782" stroke-width="0.5" stroke-miterlimit="10" stroke-linecap="round"/>
<path d="M55.7812 165.398C55.7812 165.398 51.8181 169.066 43.7637 172.008" stroke="#315782" stroke-width="0.5" stroke-miterlimit="10" stroke-linecap="round"/>
<path d="M45.2483 168.057C43.508 168.721 41.69 169.179 39.9141 169.237" stroke="#315782" stroke-width="0.5" stroke-miterlimit="10" stroke-linecap="round"/>
<path d="M55.6846 161.604C55.6846 161.604 52.6677 164.301 48.623 166.49" stroke="#315782" stroke-width="0.5" stroke-miterlimit="10" stroke-linecap="round"/>
<path d="M40.5098 177.93C40.5098 177.93 42.7365 182.735 39.0254 186.259" stroke="white" stroke-width="0.5" stroke-miterlimit="10"/>
</svg>
