<svg width="133" height="100" viewBox="0 0 133 100" fill="none" xmlns="http://www.w3.org/2000/svg">
<g opacity="0.05" clip-path="url(#clip0_2177_170)">
<path d="M52.1094 1.17185C32.0312 6.24998 14.2187 26.0937 5.07812 53.3594C1.79687 63.0469 0 73.8281 0 83.2031C0 91.5625 1.01562 95.625 3.67187 98.2812C7.03125 101.641 12.1094 100.547 27.8125 93.125C49.9219 82.7343 56.875 80.7812 70.2344 81.4062C80.2344 81.875 88.8281 84.5312 106.641 92.6562C126.797 101.797 131.641 100.547 132.578 86.0156C134.453 58.0468 112.344 20.3906 85.9375 6.3281C75.5469 0.781227 61.875 -1.32815 52.1094 1.17185Z" fill="#4F8CCA"/>
</g>
<defs>
<clipPath id="clip0_2177_170">
<rect width="132.812" height="100" fill="white"/>
</clipPath>
</defs>
</svg>
