<svg width="17" height="17" viewBox="0 0 17 17" fill="none" xmlns="http://www.w3.org/2000/svg">
<g clip-path="url(#clip0_2244_3139)">
<path d="M3.74531 3.74531L0 7.4873V8.48672V9.48613L0.0863281 9.56582L0.172656 9.64551L1.4377 9.66211C2.24121 9.67539 2.7459 9.69531 2.8123 9.71855C3.01152 9.78828 3.28711 10.0008 3.41992 10.1867C3.58594 10.4191 3.65234 10.635 3.65234 10.9537V11.2061L1.82617 13.0322L0 14.8617V15.8578V16.8572L0.0763672 16.927L0.152734 17H4.82109H9.48613L9.85137 16.6248C10.0539 16.4223 11.2758 15.1406 12.5674 13.7793C13.859 12.418 15.3863 10.8342 15.9574 10.2598L17 9.21055V8.22773C17 7.31133 16.9967 7.2416 16.9369 7.16855L16.8738 7.08887L15.5324 7.07227C14.2342 7.05566 14.1877 7.05234 14.0018 6.97598C13.6398 6.8332 13.2979 6.42812 13.2314 6.06621L13.2049 5.93672L15.1041 4.0375L17 2.13828V1.14219V0.142773L16.9236 0.0730457L16.8473 0H12.1656H7.4873L3.74531 3.74531ZM12.6172 3.96777L9.24707 7.33789H5.12988H1.0127L4.38281 3.96777L7.75293 0.597656H11.8701H15.9873L12.6172 3.96777ZM13.0422 5.23613L9.67871 8.59961L9.66875 8.17793L9.65879 7.75625L13.0223 4.39277L16.3857 1.0293L16.3957 1.45098L16.4057 1.87266L13.0422 5.23613ZM13.092 7.05898C13.3244 7.31133 13.5336 7.44746 13.8523 7.56367C14.0881 7.65 14.1213 7.65 15.0344 7.66328L15.9773 7.67656L15.134 8.52656C14.6725 8.99805 13.1518 10.5785 11.7539 12.0461L9.22051 14.7123L8.07168 14.7023L6.92285 14.6924L6.72031 14.5994C6.46465 14.4799 6.20898 14.2242 6.08613 13.9619L5.99316 13.7627V12.1855V10.6084L6.09609 10.3926C6.20898 10.1568 6.37168 9.97422 6.58086 9.84141C6.84648 9.67207 6.93281 9.66211 8.19453 9.66211C9.16738 9.66211 9.38652 9.65215 9.47285 9.6123C9.53262 9.58574 10.2797 8.86191 11.1396 8.00195L12.7002 6.44141L12.7998 6.64727C12.8529 6.76016 12.9857 6.94609 13.092 7.05898ZM9.06445 8.5V9.06445H8.00859C6.90293 9.06445 6.75352 9.08105 6.42813 9.22715C6.04297 9.3998 5.65781 9.81816 5.48848 10.2432L5.39551 10.4756L5.38555 12.0826C5.37891 13.1783 5.38887 13.7461 5.41211 13.8689C5.54492 14.5064 6.10938 15.0842 6.76348 15.2535C6.92617 15.2967 7.16855 15.3066 8.01523 15.3066H9.06445V15.8545V16.4023H4.83105H0.597656V15.8578V15.31L1.71992 15.3L2.83887 15.29L3.07793 15.1904C3.65234 14.9514 4.05078 14.5031 4.20352 13.9287C4.27324 13.6764 4.26992 10.6814 4.2002 10.4258C4.07402 9.95098 3.70547 9.48281 3.28711 9.27031C2.90195 9.07773 2.8123 9.06445 1.65352 9.06445H0.597656V8.5V7.93555H4.83105H9.06445V8.5ZM15.4627 9.89453C14.6957 10.6648 13.3609 12.0561 9.7418 15.8711L9.66211 15.9541V15.5391L9.66543 15.124L12.3217 12.335C13.7826 10.801 15.2934 9.22715 15.6818 8.83867L16.3857 8.13477L16.3957 8.53984L16.4057 8.94492L15.4627 9.89453ZM3.60586 13.8092C3.50625 14.1479 3.26055 14.4268 2.92188 14.5895L2.70605 14.6924L1.85938 14.7023L1.0127 14.7123L2.32422 13.3975L3.63574 12.0859L3.6457 12.8695C3.65234 13.4705 3.64238 13.6863 3.60586 13.8092Z" fill="#6C6A72"/>
<path d="M12.3283 7.68652C12.0627 7.80273 12.159 8.23438 12.4512 8.23438C12.6405 8.23438 12.75 8.13145 12.75 7.95879C12.7467 7.80937 12.7069 7.73633 12.594 7.67656C12.5043 7.62676 12.4612 7.62676 12.3283 7.68652Z" fill="#6C6A72"/>
<path d="M11.2791 8.7626C11.06 8.9751 11.04 9.00498 11.04 9.13115C11.04 9.24405 11.06 9.28721 11.133 9.3503C11.2891 9.48311 11.4186 9.45987 11.6377 9.26065C11.9432 8.98174 11.993 8.80244 11.8236 8.62979C11.6609 8.46709 11.5547 8.49365 11.2791 8.7626Z" fill="#6C6A72"/>
<path d="M10.1402 9.9435C10.024 10.063 9.92111 10.1958 9.90783 10.239C9.85802 10.4482 10.0373 10.6474 10.2365 10.6109C10.3594 10.5876 10.6615 10.3087 10.7512 10.1394C10.8475 9.95346 10.6914 9.72768 10.4656 9.72768C10.3693 9.72768 10.3195 9.76088 10.1402 9.9435Z" fill="#6C6A72"/>
<path d="M9.01132 11.1329C8.89843 11.2458 8.7955 11.3786 8.78222 11.4317C8.72577 11.6509 8.94823 11.8634 9.15409 11.7837C9.27694 11.7372 9.55917 11.4649 9.61562 11.3354C9.70194 11.1296 9.57245 10.9237 9.35331 10.9237C9.23378 10.9237 9.19726 10.947 9.01132 11.1329Z" fill="#6C6A72"/>
<path d="M8.07834 12.1457C8.02522 12.1756 7.90236 12.2885 7.80608 12.3947C7.60686 12.6172 7.58361 12.75 7.71975 12.8961C7.77951 12.9625 7.82932 12.9824 7.93889 12.9824C8.06506 12.9824 8.09494 12.9658 8.28752 12.7633C8.4801 12.5641 8.50002 12.5309 8.50002 12.4047C8.50002 12.1689 8.27756 12.0328 8.07834 12.1457Z" fill="#6C6A72"/>
<path d="M6.94646 13.3136C6.85349 13.3535 6.7738 13.5328 6.79704 13.6556C6.83689 13.8648 7.13572 13.9511 7.28845 13.7951C7.34822 13.7386 7.37146 13.6789 7.37146 13.5892C7.36814 13.3502 7.17224 13.224 6.94646 13.3136Z" fill="#6C6A72"/>
</g>
<defs>
<clipPath id="clip0_2244_3139">
<rect width="17" height="17" fill="white"/>
</clipPath>
</defs>
</svg>
