<svg width="16" height="17" viewBox="0 0 16 17" fill="none" xmlns="http://www.w3.org/2000/svg">
<path d="M2.76176 6.39594C1.7677 7.38969 1.76301 9.00844 2.75426 9.99907C2.76301 10.0084 2.77239 10.0147 2.78114 10.0241C2.34051 10.1303 1.92239 10.3522 1.57926 10.6959C0.585202 11.6897 0.580514 13.3116 1.57208 14.3022C2.56333 15.2928 4.18426 15.2897 5.17801 14.2928C5.57801 13.8928 5.81864 13.3866 5.89676 12.8647C6.09676 13.1178 6.19989 13.3334 6.24989 13.5178C6.31551 13.7709 6.28739 13.9709 6.22176 14.1678C6.15614 14.3647 6.04989 14.5428 5.95926 14.7428C5.91551 14.8428 5.87489 14.9491 5.86864 15.0928C5.86239 15.2334 5.92489 15.4116 6.03739 15.5241C6.20926 15.6959 6.45301 15.6866 6.62176 15.6366C6.79051 15.5897 6.95301 15.5022 7.12801 15.3897C7.48426 15.1647 7.90301 14.8272 8.36239 14.4209C9.27801 13.6116 10.3436 12.5459 11.1968 11.6959C12.0468 10.8428 13.1124 9.77719 13.9218 8.86157C14.328 8.40219 14.6655 7.98344 14.8905 7.62719C15.003 7.44907 15.0905 7.28969 15.1374 7.12094C15.1874 6.95219 15.1968 6.70844 15.0249 6.53657C14.9124 6.42407 14.7343 6.36157 14.5936 6.36782C14.4499 6.37407 14.3436 6.41469 14.2436 6.45844C14.0436 6.54594 13.8655 6.65532 13.6686 6.72094C13.4718 6.78657 13.2718 6.81469 13.0186 6.74907C12.8343 6.69907 12.6186 6.59594 12.3655 6.39594C12.8874 6.31782 13.3936 6.07719 13.7936 5.67719C14.7905 4.68344 14.7936 3.06251 13.803 2.07094C12.8124 1.07969 11.1905 1.08407 10.1968 2.07844C9.85301 2.42157 9.63114 2.83969 9.52489 3.28032C9.51551 3.27157 9.50926 3.26219 9.49989 3.25344C8.50926 2.26219 6.89051 2.26688 5.89676 3.26094C5.22489 3.93032 5.00614 4.88344 5.23739 5.73657C4.38426 5.50532 3.43114 5.72407 2.76176 6.39594ZM3.24051 6.87407C3.97801 6.13657 5.15614 6.13344 5.88739 6.86469C6.61864 7.59594 6.61864 8.77719 5.88114 9.51469C5.14364 10.2522 3.96551 10.2522 3.23426 9.52094C2.50145 8.78969 2.50364 7.60844 3.24051 6.87407ZM6.37489 3.73969C7.10926 3.00282 8.29051 3.00063 9.02176 3.73344C9.75301 4.46469 9.74989 5.64282 9.01551 6.38032C8.27801 7.11782 7.09676 7.11782 6.36551 6.38657C5.63426 5.65532 5.63739 4.47719 6.37489 3.73969ZM2.0577 11.1741C2.79458 10.4397 3.97489 10.4366 4.70614 11.1678C5.43739 11.8991 5.43426 13.0803 4.69989 13.8147C3.96239 14.5522 2.78208 14.5553 2.05051 13.8241C1.31895 13.0928 1.32114 11.9116 2.0577 11.1741ZM10.6749 2.55688C11.4124 1.82032 12.5936 1.81813 13.3249 2.54969C14.0561 3.28126 14.053 4.46157 13.3155 5.19907C12.5811 5.93344 11.3999 5.93657 10.6686 5.20532C9.93426 4.33657 10.1218 3.14626 10.6749 2.55688ZM7.01864 7.51782C7.87176 7.74594 8.82489 7.52719 9.49364 6.85844C9.64676 6.70532 9.77489 6.53657 9.88114 6.35844C10.9186 6.75844 11.5343 7.29907 11.6905 7.92094C11.8624 8.60532 11.528 9.55532 10.2905 10.7897C9.05614 12.0272 8.10614 12.3616 7.42176 12.1897C6.79989 12.0334 6.25614 11.4178 5.85926 10.3803C6.03739 10.2741 6.20614 10.1459 6.35926 9.99282C7.02801 9.32407 7.24676 8.37094 7.01864 7.51782Z" fill="#4F8CCA"/>
</svg>
