<svg width="16" height="17" viewBox="0 0 16 17" fill="none" xmlns="http://www.w3.org/2000/svg">
<path d="M9.76698 0.555745C9.25169 0.680662 9.18143 0.73141 4.93424 4.26813C2.70134 6.12237 0.772926 7.75411 0.640202 7.89464C0.210798 8.34747 0 8.87446 0 9.51076C0 10.1236 0.222509 10.6701 0.663624 11.123C0.858807 11.326 6.55816 15.7879 7.38184 16.3812C7.56921 16.5178 7.74097 16.5374 7.88541 16.4359C8.14695 16.2563 15.927 9.74108 15.9621 9.67471C16.0089 9.58883 16.0168 9.43659 15.9816 9.339C15.966 9.30386 14.8925 8.40602 13.5887 7.34032C12.2887 6.27462 11.1918 5.37677 11.1528 5.34164C11.0903 5.27918 11.1059 5.25966 11.4534 4.97079C12.3317 4.24861 12.6167 3.78798 12.6752 2.99163C12.7494 1.90251 12.0467 0.89146 11.0005 0.586974C10.6414 0.485479 10.1144 0.469864 9.76698 0.555745ZM10.8171 1.27402C11.4104 1.4614 11.832 1.94935 11.9491 2.58175C12.0389 3.07361 11.8593 3.62012 11.4807 3.98707C11.3831 4.08466 9.81773 5.4002 8.00252 6.91482L4.70392 9.663L4.67659 9.35461C4.62194 8.72222 4.42286 8.2772 4.00126 7.8517C3.68506 7.5355 3.31031 7.32861 2.86529 7.22321L2.58423 7.15685L5.99603 4.31888C7.86979 2.75351 9.47811 1.43797 9.57179 1.39113C9.97387 1.18424 10.3955 1.1452 10.8171 1.27402ZM12.8118 7.62529C14.0649 8.64805 15.0916 9.49124 15.0955 9.49124C15.115 9.50686 7.70974 15.6551 7.6668 15.659C7.63948 15.659 6.50741 14.8041 5.15284 13.7501C3.25566 12.2824 2.70134 11.8334 2.75599 11.8139C2.79893 11.8022 2.95508 11.7515 3.10342 11.7046C3.25566 11.6539 3.47426 11.5563 3.59137 11.4821C3.70848 11.4118 5.30899 10.0963 7.14371 8.56217C8.97844 7.02803 10.4931 5.77104 10.5087 5.77104C10.5243 5.76714 11.5627 6.60253 12.8118 7.62529ZM2.83016 7.94148C3.54843 8.15619 4.03249 8.88227 3.97003 9.63958C3.89196 10.5569 2.9824 11.2752 2.10017 11.1191C1.62393 11.0371 1.15549 10.717 0.921266 10.3149C0.65972 9.8738 0.636298 9.29996 0.851 8.83933C1.21014 8.0664 2.0221 7.69555 2.83016 7.94148Z" fill="#6C6A72"/>
<path d="M1.89343 8.59306C1.78803 8.64381 1.6514 8.73359 1.59285 8.79605C1.21419 9.20203 1.24932 9.88908 1.65921 10.2521C1.87391 10.4395 2.04958 10.502 2.34235 10.502C2.63513 10.502 2.81079 10.4395 3.02159 10.256C3.41976 9.90469 3.46661 9.25668 3.12308 8.84289C2.84983 8.51108 2.30331 8.39788 1.89343 8.59306ZM2.55705 9.29962C2.67807 9.41673 2.68197 9.55727 2.56486 9.69389C2.4985 9.77197 2.43604 9.79929 2.34235 9.79929C2.19011 9.79929 2.03006 9.64315 2.03006 9.4909C2.03006 9.35427 2.19401 9.20203 2.34235 9.20203C2.41652 9.20203 2.4985 9.23716 2.55705 9.29962Z" fill="#6C6A72"/>
</svg>
