<svg width="282" height="262" viewBox="0 0 282 262" fill="none" xmlns="http://www.w3.org/2000/svg">
<path opacity="0.07" d="M135.099 249.5C66.2992 249.5 10.6992 193.8 10.6992 124.9C10.6992 56.0004 66.2992 0.400391 135.099 0.400391C203.899 0.400391 259.499 56.0004 259.499 124.9C259.499 193.8 203.899 249.5 135.099 249.5Z" fill="#4F8CCA"/>
<mask id="mask0_2596_1722" style="mask-type:luminance" maskUnits="userSpaceOnUse" x="10" y="0" width="250" height="250">
<path d="M134.99 249.309C66.2302 249.309 10.6602 193.669 10.6602 124.829C10.6602 55.9994 66.2302 0.359375 134.99 0.359375C203.75 0.359375 259.33 55.9994 259.33 124.829C259.33 193.669 203.75 249.309 134.99 249.309Z" fill="white"/>
</mask>
<g mask="url(#mask0_2596_1722)">
<path d="M46.6992 56.6992C46.6992 51.1992 51.0992 46.6992 56.6992 46.6992H212.799C218.299 46.6992 222.799 51.1992 222.799 56.6992V233.599C222.799 239.199 218.299 243.599 212.799 243.599H56.6992C51.0992 243.599 46.6992 239.199 46.6992 233.599V56.6992Z" fill="white"/>
<path d="M78 175.398C78 172.098 80.7 169.398 84 169.398H186C189.3 169.398 192 172.098 192 175.398V175.898C192 179.198 189.3 181.898 186 181.898H84C80.7 181.898 78 179.198 78 175.898V175.398Z" fill="#8391A1"/>
<path d="M135.002 156.999C113.202 156.999 95.6016 139.399 95.6016 117.599C95.6016 95.7992 113.202 78.1992 135.002 78.1992C156.802 78.1992 174.402 95.7992 174.402 117.599C174.402 139.399 156.802 156.999 135.002 156.999Z" fill="#4F8CCA" fill-opacity="0.07"/>
<path d="M134.997 138.299C123.497 138.299 114.297 128.999 114.297 117.599C114.297 106.099 123.497 96.7988 134.997 96.7988C146.497 96.7988 155.697 106.099 155.697 117.599C155.697 128.999 146.497 138.299 134.997 138.299Z" fill="#4F8CCA"/>
<path d="M129.602 118.299L132.702 121.499L140.402 113.699" stroke="white" stroke-linecap="round" stroke-linejoin="round"/>
<path d="M67.1992 200C67.1992 197.8 68.9992 196 71.1992 196H198.199C200.499 196 202.199 197.8 202.199 200V224.2C202.199 226.4 200.499 228.2 198.199 228.2H71.1992C68.9992 228.2 67.1992 226.4 67.1992 224.2V200Z" fill="#4F8CCA" fill-opacity="0.07"/>
</g>
<path d="M16.0008 238.701C14.5008 238.701 13.3008 237.501 13.3008 236.001C13.3008 234.501 14.5008 233.301 16.0008 233.301C17.5008 233.301 18.7008 234.501 18.7008 236.001C18.7008 237.501 17.5008 238.701 16.0008 238.701Z" fill="#F1F3F7"/>
<path d="M50.4992 244.099C49.2992 244.099 48.1992 242.899 48.1992 241.399C48.1992 239.899 49.2992 238.699 50.4992 238.699C51.6992 238.699 52.6992 239.899 52.6992 241.399C52.6992 242.899 51.6992 244.099 50.4992 244.099Z" fill="#C1CBD4"/>
<path d="M26.4984 222L24.5984 223.9L23.1984 222.5L25.0984 220.6L22.8984 218.5L24.3984 217L26.4984 219.2L28.4984 217.2L29.8984 218.6L27.8984 220.5L29.9984 222.6L28.4984 224.1L26.4984 222Z" fill="#85C0F9"/>
<path d="M59.3992 9.30078C58.1992 9.30078 57.1992 8.30078 57.1992 7.10078C57.1992 5.80078 58.1992 4.80078 59.3992 4.80078C60.6992 4.80078 61.6992 5.80078 61.6992 7.10078C61.6992 8.30078 60.6992 9.30078 59.3992 9.30078Z" fill="#C1CBD4"/>
<path d="M31.2016 14.7008C29.8016 14.7008 28.6016 13.5008 28.6016 12.0008C28.6016 10.5008 29.8016 9.30078 31.2016 9.30078C32.7016 9.30078 33.9016 10.5008 33.9016 12.0008C33.9016 13.5008 32.7016 14.7008 31.2016 14.7008Z" fill="#F1F3F7"/>
<path d="M26.4984 42.6L28.3984 44.5L29.7984 43.1L27.7984 41.2L29.9984 39L28.5984 37.5L26.3984 39.7L24.4984 37.8L23.0984 39.2L24.9984 41.1L22.8984 43.2L24.3984 44.6L26.4984 42.6Z" fill="#85C0F9"/>
<path d="M233.401 57.3996C223.701 57.3996 215.801 49.4996 215.801 39.7996C215.801 29.9996 223.701 22.0996 233.401 22.0996C243.201 22.0996 251.001 29.9996 251.001 39.7996C251.001 49.4996 243.201 57.3996 233.401 57.3996Z" fill="white"/>
<path d="M236.1 43.3992C235.9 43.3992 235.733 43.3326 235.6 43.1992C235.3 42.8992 235.3 42.3992 235.6 42.0992L237.7 39.9992L235.6 37.8992C235.3 37.5992 235.3 37.0992 235.6 36.7992C235.9 36.4992 236.4 36.4992 236.7 36.7992L239.3 39.3992C239.6 39.6992 239.6 40.1992 239.3 40.4992L236.7 43.1992C236.5 43.2992 236.3 43.3992 236.1 43.3992Z" fill="#636B81"/>
<path d="M238.7 40.7992H228.2C227.8 40.7992 227.5 40.3992 227.5 39.9992C227.5 39.5992 227.8 39.1992 228.2 39.1992H238.7C239.1 39.1992 239.5 39.5992 239.5 39.9992C239.5 40.3992 239.1 40.7992 238.7 40.7992Z" fill="#636B81"/>
<path d="M29.4992 161.7C28.1992 161.6 25.4992 162.3 24.2992 166.3C22.7992 171.3 22.7992 181.2 10.6992 181.4" stroke="#FE5284" stroke-width="2" stroke-linecap="round"/>
<path d="M260.701 205C257.601 205 251.201 202.9 250.301 194.9C249.501 187.6 259.001 187.8 256.801 193.8C254.901 198.8 240.601 204 235.301 185" stroke="#F39958" stroke-width="2" stroke-linecap="round"/>
<path d="M187.102 12.6992C191.002 9.69919 200.302 4.39919 210.902 9.99919" stroke="#85C0F9" stroke-width="2" stroke-linecap="round"/>
</svg>
