<svg width="28" height="28" viewBox="0 0 28 28" fill="none" xmlns="http://www.w3.org/2000/svg">
<path d="M8.95624 2.52003C7.54794 2.87003 5.76217 4.15803 5.02172 5.37603C4.03446 7.00003 3.91831 9.39403 4.74587 11.102C6.66231 15.036 11.9035 15.918 15.1121 12.838C18.1755 9.87003 17.2173 4.78803 13.2392 2.96803C12.31 2.53403 12.0051 2.47803 10.8436 2.43603C10.1032 2.40803 9.26113 2.45003 8.95624 2.52003ZM12.702 4.22803C13.1085 4.42403 13.7474 4.91403 14.1248 5.30603C15.4315 6.65003 15.809 8.19003 15.2428 9.95403C14.9669 10.836 14.8072 11.088 14.0377 11.83C12.8472 12.978 11.8745 13.356 10.2919 13.272C8.33194 13.16 6.82202 12.152 5.97994 10.388C5.68957 9.77203 5.60246 9.36603 5.60246 8.54003C5.58794 7.61603 5.64602 7.36403 6.06705 6.55203C6.63328 5.43203 7.66409 4.48003 8.75298 4.06003C9.84187 3.65403 11.6857 3.72403 12.702 4.22803Z" fill="#1F2E60"/>
<path d="M11.7579 7.30799C11.2207 7.86799 10.5964 8.53999 10.3496 8.80599L9.91405 9.29599L9.14457 8.70799C8.09923 7.90999 7.40234 7.95199 7.40234 8.80599C7.40234 9.08599 7.64916 9.36599 8.54931 10.038C9.6382 10.878 10.0447 11.046 10.3786 10.808C10.698 10.598 13.4711 7.58799 13.6308 7.29399C13.776 7.04199 13.7615 6.91599 13.5727 6.63599C13.1952 6.07599 12.8178 6.21599 11.7579 7.30799Z" fill="#1F2E60"/>
<path d="M0.189818 8.1715C-0.0632726 8.41446 -0.0632726 22.8779 0.189818 23.1208C0.308919 23.2351 0.904426 23.2923 1.87213 23.2923H3.39067L3.56932 23.8926C4.26904 26.1507 7.12747 26.7367 8.76512 24.9502C9.04799 24.6358 9.2713 24.207 9.33085 23.864L9.43507 23.2923H14.616H19.7969L19.9458 23.8211C20.3626 25.2789 21.5685 26.1078 23.102 25.9649C23.6826 25.922 24.1739 25.7791 24.5014 25.5647C25.1267 25.1503 25.7668 24.207 25.7668 23.6925C25.7668 23.3495 25.8264 23.2923 26.1986 23.2923C26.7048 23.2923 27.5534 22.7635 27.8065 22.2919C27.9404 22.0489 28 21.1342 28 19.362V16.7752L26.8536 14.1598C25.9753 12.1875 25.5882 11.4586 25.2756 11.23C24.8885 10.9584 24.6205 10.9298 22.4171 10.887L19.9904 10.8441L19.9309 9.55781C19.9011 8.61455 19.8267 8.24296 19.6629 8.14292C19.5438 8.07146 18.859 8 18.1444 8H16.8342V8.64313V9.28627H17.6531H18.4719V15.5747V21.8631H13.8567H9.24152L8.67579 21.2629C8.00585 20.5483 7.41034 20.291 6.45753 20.291C5.51961 20.3053 4.61146 20.7055 4.10528 21.3486C3.70331 21.8631 3.70331 21.8631 2.52718 21.8631H1.35106V15.5747V9.28627H2.21454H3.07803L3.06314 8.64313V8H1.72325C0.859763 8 0.308919 8.05717 0.189818 8.1715ZM24.3376 12.3733C24.8587 12.5591 24.5163 12.7163 23.5784 12.7163C21.6132 12.7163 21.1219 13.388 21.1814 15.8891L21.2261 17.5041L23.9506 17.547C26.2284 17.5756 26.6601 17.6184 26.6601 17.7899C26.6601 17.9329 26.5112 18.0043 26.2135 18.0043C25.3947 18.0043 24.9034 18.7904 25.0671 19.8337C25.1713 20.4625 25.6329 20.8627 26.2284 20.8627C26.6899 20.8627 26.7792 21.0914 26.5112 21.5916C26.2433 22.0489 25.6031 21.9346 25.216 21.3772C24.2483 19.948 21.4345 19.9623 20.4817 21.4058C20.318 21.6488 20.1393 21.8488 20.0798 21.8631C19.9309 21.8631 19.916 12.5162 20.0649 12.3876C20.184 12.259 24.025 12.259 24.3376 12.3733ZM25.6477 15.0745C25.9604 15.7748 26.1986 16.4036 26.2135 16.4608C26.2135 16.5323 25.3053 16.5751 24.2036 16.5751H22.1938V15.5032C22.1938 14.5314 22.2385 14.3742 22.566 14.0598C22.9084 13.731 23.0275 13.7025 24.0101 13.7453L25.0969 13.7882L25.6477 15.0745ZM26.6601 19.4335C26.6601 19.7193 26.5857 19.8623 26.4368 19.8623C26.2879 19.8623 26.2135 19.7193 26.2135 19.4335C26.2135 19.1477 26.2879 19.0048 26.4368 19.0048C26.5857 19.0048 26.6601 19.1477 26.6601 19.4335ZM7.48478 22.1347C7.88675 22.4777 7.97607 22.6492 7.97607 23.1494C7.97607 24.3642 6.39798 25.0502 5.47494 24.2356C3.9564 22.8921 5.95135 20.8055 7.48478 22.1347ZM23.8612 22.1347C24.2632 22.4777 24.3525 22.6492 24.3525 23.1494C24.3525 24.5929 22.3129 25.1074 21.5536 23.864C20.6604 22.4205 22.5362 21.0056 23.8612 22.1347Z" fill="#1F2E60"/>
<path d="M21.5469 18.13C21.4163 18.662 21.6195 18.774 22.6648 18.732C23.594 18.69 23.594 18.69 23.594 18.27V17.85L22.6213 17.808C21.6776 17.766 21.634 17.78 21.5469 18.13Z" fill="#1F2E60"/>
<path d="M6.70701 22.4279C6.31501 22.8059 6.6199 23.3799 7.21516 23.3799C7.63619 23.3799 7.91205 22.9179 7.69427 22.5399C7.52005 22.2319 6.98286 22.1619 6.70701 22.4279Z" fill="#1F2E60"/>
<path d="M22.6762 22.4278C22.2697 22.8198 22.6327 23.4358 23.2424 23.3518C23.678 23.2958 23.9248 22.8898 23.7215 22.5678C23.5183 22.2738 22.923 22.1898 22.6762 22.4278Z" fill="#1F2E60"/>
</svg>
