<svg width="31" height="29" viewBox="0 0 31 29" fill="none" xmlns="http://www.w3.org/2000/svg">
<g clip-path="url(#clip0_2636_4368)">
<path d="M24.1679 26.5418C22.2779 26.5418 20.4929 25.5618 19.4895 23.9518C18.9529 23.1235 18.6495 22.1317 18.6262 21.1167C18.5912 19.4134 19.3146 17.8268 20.6096 16.7534C21.5779 15.9484 22.7912 15.4934 24.0396 15.4584C25.5562 15.4468 26.9212 15.9718 27.9945 16.9985C29.0679 18.0251 29.6745 19.4018 29.6979 20.8835C29.7212 21.8985 29.4646 22.8901 28.9512 23.7651C28.6712 24.2551 28.3095 24.7101 27.8779 25.0951C26.9212 25.9935 25.6379 26.5184 24.2729 26.5418C24.2495 26.5418 24.2145 26.5418 24.1679 26.5418ZM24.1679 17.2084C24.1445 17.2084 24.1095 17.2084 24.0862 17.2084C23.2229 17.2318 22.4062 17.5351 21.7296 18.0951C20.8429 18.8301 20.3529 19.9151 20.3762 21.0818C20.3879 21.7701 20.5979 22.4468 20.9595 23.0184C21.6712 24.1618 22.9079 24.8618 24.2379 24.7918C25.1595 24.7684 26.0346 24.4185 26.6996 23.8001C27.0029 23.5318 27.2479 23.2284 27.4345 22.9018C27.7845 22.2951 27.9595 21.6184 27.9479 20.9301C27.9245 19.9151 27.5162 18.9701 26.7812 18.2701C26.0812 17.5817 25.1479 17.2084 24.1679 17.2084Z" fill="#7367F0"/>
<path d="M23.5237 23.0417C23.3021 23.0417 23.092 22.96 22.917 22.7967L21.7387 21.6767C21.3887 21.3384 21.377 20.7901 21.7154 20.4401C22.0537 20.0901 22.602 20.0784 22.952 20.4167L23.5237 20.965L25.3554 19.1917C25.7054 18.8534 26.2537 18.865 26.592 19.215C26.9304 19.565 26.9187 20.1134 26.5687 20.4517L24.1304 22.8084C23.9554 22.96 23.7337 23.0417 23.5237 23.0417Z" fill="#7367F0"/>
<path d="M16.0009 15.5166C15.8492 15.5166 15.6975 15.4816 15.5575 15.3999L5.25588 9.4383C4.83588 9.1933 4.69586 8.6566 4.94086 8.2366C5.18586 7.8166 5.72255 7.67658 6.13089 7.92158L15.9892 13.6266L25.7892 7.95661C26.2092 7.71161 26.7459 7.8633 26.9792 8.27163C27.2242 8.69163 27.0726 9.22826 26.6642 9.47326L16.4325 15.3999C16.3042 15.4699 16.1525 15.5166 16.0009 15.5166Z" fill="#7367F0"/>
<path d="M16 26.0863C15.5217 26.0863 15.125 25.6896 15.125 25.2113V14.6296C15.125 14.1513 15.5217 13.7546 16 13.7546C16.4783 13.7546 16.875 14.1513 16.875 14.6296V25.2113C16.875 25.6896 16.4783 26.0863 16 26.0863Z" fill="#7367F0"/>
<path d="M16.0007 26.5415C14.974 26.5415 13.9473 26.3198 13.154 25.8648L6.92401 22.4115C5.23234 21.4782 3.90234 19.2265 3.90234 17.2898V10.6865C3.90234 8.7498 5.23234 6.50985 6.92401 5.56485L13.154 2.11149C14.7407 1.21316 17.2373 1.21316 18.8357 2.11149L25.0657 5.56485C26.7573 6.49819 28.0873 8.7498 28.0873 10.6865V17.2898C28.0873 17.4065 28.0873 17.4998 28.064 17.6165C28.0057 17.9198 27.784 18.1765 27.4923 18.2698C27.2007 18.3748 26.874 18.3049 26.629 18.1065C25.2873 16.9399 23.2107 16.8932 21.799 18.0248C20.9007 18.7365 20.3757 19.8215 20.3757 20.9765C20.3757 21.6648 20.5623 22.3415 20.924 22.9249C21.0173 23.0882 21.1107 23.2165 21.2157 23.3448C21.3907 23.5432 21.4607 23.8115 21.414 24.0682C21.3674 24.3248 21.204 24.5465 20.9707 24.6749L18.8357 25.8531C18.0423 26.3198 17.0273 26.5415 16.0007 26.5415ZM16.0007 3.20816C15.2773 3.20816 14.5423 3.35984 14.0173 3.6515L7.78733 7.10486C6.65566 7.72319 5.67566 9.40313 5.67566 10.6865V17.2898C5.67566 18.5732 6.66733 20.2532 7.78733 20.8715L14.0173 24.3248C15.079 24.9198 16.934 24.9198 17.9957 24.3248L19.3023 23.6015C18.8707 22.8198 18.6374 21.9098 18.6374 20.9765C18.6374 19.2731 19.3957 17.6982 20.714 16.6482C22.3007 15.3765 24.564 15.1081 26.349 15.8665V10.6632C26.349 9.37985 25.3573 7.69984 24.2373 7.08151L18.0073 3.62815C17.459 3.35981 16.724 3.20816 16.0007 3.20816Z" fill="#7367F0"/>
</g>
<defs>
<clipPath id="clip0_2636_4368">
<rect width="29.325" height="28" fill="white" transform="translate(0.851562 0.5)"/>
</clipPath>
</defs>
</svg>
