<svg width="28" height="28" viewBox="0 0 28 28" fill="none" xmlns="http://www.w3.org/2000/svg">
<path d="M15.743 0.0546875C14.8406 0.207812 13.807 0.650782 13.0852 1.19766C11.9969 2.01797 11.2148 3.17734 10.8484 4.51172C10.7062 5.01484 10.6953 5.13516 10.6953 6.07031C10.6953 7.00547 10.7062 7.12578 10.8484 7.62891C11.4281 9.74531 13.0523 11.3695 15.1797 11.9602C15.6828 12.1023 15.7922 12.1133 16.7602 12.1133C17.7281 12.1133 17.8375 12.1023 18.3461 11.9602C20.4734 11.3695 22.1086 9.73438 22.6828 7.6125C22.8141 7.13125 22.825 6.98906 22.825 6.07031C22.825 5.15156 22.8141 5.00938 22.6828 4.52813C22.0594 2.23672 20.2164 0.519531 17.8922 0.0765629C17.4602 -0.00546837 16.1805 -0.0164061 15.743 0.0546875ZM17.3891 1.75C19.1445 2.02891 20.5555 3.29766 21.0039 5.00391C21.1625 5.61094 21.1625 6.52969 21.0039 7.13672C20.632 8.56406 19.5492 9.72344 18.1492 10.1992C15.7703 11.0086 13.1672 9.59219 12.5164 7.13125C12.3578 6.53516 12.3578 5.61094 12.5164 5.00938C13.0906 2.83828 15.2289 1.41094 17.3891 1.75Z" fill="#7367F0"/>
<path d="M18.5105 3.74066C18.423 3.77894 17.8051 4.38597 17.1488 5.08597C16.1863 6.10316 15.9348 6.33832 15.891 6.27816C15.3223 5.51254 14.9285 5.19535 14.5566 5.19535C14.3105 5.19535 13.9387 5.41957 13.8238 5.63285C13.7199 5.83519 13.6926 6.2016 13.7746 6.40941C13.8019 6.48051 14.1684 6.94535 14.5949 7.44301C15.1418 8.09379 15.4098 8.37269 15.5355 8.41644C15.7707 8.49847 16.0988 8.49301 16.3121 8.40004C16.5582 8.3016 19.5168 5.16254 19.648 4.85629C19.9652 4.15629 19.2269 3.42894 18.5105 3.74066Z" fill="#7367F0"/>
<path d="M1.86407 2.17659C1.5797 2.31877 1.45938 2.52112 1.43751 2.88206C1.41017 3.25393 1.52501 3.48909 1.81485 3.66409C1.98438 3.76799 2.09376 3.77346 3.4336 3.77346C4.2211 3.77346 4.86642 3.7844 4.86642 3.79534C4.86642 3.80627 5.6922 7.30627 6.69845 11.5719C7.7047 15.8375 8.52501 19.343 8.51954 19.3649C8.5086 19.3867 8.00001 19.7914 7.38204 20.2672C6.76407 20.7375 6.15704 21.2242 6.02579 21.35C5.21641 22.1266 5.32032 23.5539 6.24454 24.2867C6.67657 24.6258 6.89532 24.6641 8.32267 24.6641H9.56954L9.51485 24.7953C9.42188 25.0469 9.39454 25.5664 9.46017 25.9219C9.60782 26.7477 10.1164 27.4094 10.8766 27.7758C11.2867 27.9672 11.3031 27.9727 11.9758 27.9727C12.6484 27.9727 12.6649 27.9672 13.075 27.7758C13.8352 27.4094 14.3438 26.7477 14.4914 25.9219C14.557 25.5664 14.5297 25.0469 14.4367 24.7953L14.382 24.6641H16.6297H18.8774L18.8445 24.7844C18.8227 24.8555 18.7953 25.0961 18.7734 25.3203C18.6859 26.4797 19.3805 27.5133 20.5125 27.8906C20.8078 27.9891 20.9555 28.0055 21.4367 27.9891C21.9617 27.9727 22.0438 27.9508 22.4211 27.7703C22.9406 27.5188 23.3891 27.0649 23.6406 26.5399C23.8047 26.1899 23.8156 26.1352 23.8156 25.5391C23.8156 25.1946 23.7938 24.8555 23.7719 24.7844L23.7281 24.6641H24.8383C25.7844 24.6641 25.9758 24.6477 26.1344 24.5656C26.4188 24.4235 26.5391 24.2211 26.5609 23.8602C26.5883 23.4883 26.4734 23.2531 26.1836 23.0781C26.0031 22.9688 25.8883 22.9688 16.6953 22.9688C7.40391 22.9688 7.38204 22.9688 7.27267 22.8594C7.1961 22.7828 7.17423 22.7172 7.20704 22.668C7.22892 22.6188 7.82501 22.143 8.53048 21.6016L9.81017 20.6172L17.3078 20.6063L24.8 20.5899L25.1117 20.4641C25.5 20.3055 25.9156 19.9172 26.1125 19.5235C26.3203 19.1133 26.3367 18.7797 26.4188 14.0219C26.4899 9.7344 26.4899 9.72893 26.2219 9.26409C26.0469 8.96877 25.6477 8.60784 25.3305 8.46565C24.9695 8.30706 24.4555 8.30159 24.2422 8.45471C23.6242 8.90862 23.7445 9.77815 24.4609 10.0078C24.5703 10.0406 24.6852 10.1117 24.7125 10.161C24.7727 10.2813 24.6195 18.5828 24.5539 18.7469L24.4992 18.8672L17.3516 18.8563L10.1984 18.8399L8.90235 13.2344C8.18595 10.15 7.60079 7.60159 7.60079 7.56878C7.60079 7.53049 7.84688 7.5469 8.34454 7.61799C9.04454 7.71643 9.09376 7.71643 9.32892 7.62893C9.67345 7.49768 9.84298 7.23518 9.84298 6.83596C9.84298 6.47503 9.71173 6.22893 9.44923 6.09221C9.35079 6.04299 8.80392 5.92815 8.2297 5.84065C7.66095 5.75315 7.17423 5.66565 7.15782 5.64377C7.13595 5.6219 6.94454 4.91643 6.73126 4.07971C6.50704 3.21565 6.29376 2.4883 6.2336 2.40627C6.00938 2.08909 5.92735 2.07815 3.89845 2.07815C2.24688 2.07815 2.02813 2.08909 1.86407 2.17659ZM12.4078 24.8172C12.9164 25.1946 12.9109 25.7797 12.3969 26.1625C12.1836 26.3211 11.768 26.3211 11.5547 26.1625C11.0789 25.8071 11.0297 25.2821 11.4399 24.8992C11.7133 24.6422 12.1289 24.6094 12.4078 24.8172ZM21.6172 24.7406C22.1859 24.9758 22.3063 25.6977 21.8359 26.0805C21.5625 26.3102 21.2836 26.343 20.9719 26.1953C20.3539 25.8946 20.343 25.0852 20.9609 24.7789C21.2289 24.6422 21.3711 24.6367 21.6172 24.7406Z" fill="#7367F0"/>
</svg>
